<?xml version="1.0" encoding="utf-8"?>
<!-- Generator: Adobe Illustrator 21.1.0, SVG Export Plug-In . SVG Version: 6.00 Build 0)  -->
<svg version="1.1" id="Layer_1" xmlns="http://www.w3.org/2000/svg" xmlns:xlink="http://www.w3.org/1999/xlink" x="0px" y="0px"
	 viewBox="0 0 221 221" style="enable-background:new 0 0 221 221;" xml:space="preserve">
<style type="text/css">
	.st0{fill:#D8A073;}
</style>
<g>
	<path class="st0" d="M112.2,83.9l8.1-2c2.4-0.6,4.1-1.3,4.9-1.9c0.8-0.7,1.3-1.6,1.3-2.6c0-0.8-0.3-1.4-1-1.9
		c-0.7-0.5-1.7-0.7-3-0.7c-1.2,0-2.4,0.2-3.5,0.6c-1.1,0.4-2.1,1-3.1,1.7l-8.8,6.8H112.2z M106.8,100.3h0.3l8.1,21.3H98.5
		L106.8,100.3z M118.3,130c0.6,1.5,1,2.8,1.3,3.8c0.3,1,0.5,1.9,0.5,2.5c0,1.1-0.5,1.9-1.5,2.2c-1,0.4-2.6,0.6-4.8,0.7v2.9h26.5
		v-2.9c-1.6-0.1-2.9-0.4-3.9-0.6c-1-0.3-1.9-0.8-2.7-1.5c-0.8-0.7-1.5-1.8-2.2-3.1c-0.7-1.4-1.5-3.2-2.5-5.6l-16.8-41h-5.2
		l-18.5,46.2c-0.4,1-0.9,1.8-1.3,2.5c-0.5,0.7-1,1.2-1.7,1.7c-0.6,0.4-1.4,0.7-2.2,1c-0.8,0.2-1.8,0.4-2.9,0.6v2.8h19.2v-2.8
		c-2.1,0-3.7-0.2-4.7-0.6c-1.1-0.4-1.6-1.3-1.6-2.7c0-1.9,1.1-5.4,3.3-10.3h19.9L118.3,130z"/>
	<path class="st0" d="M108.6,221l-10.2-11.7l1.8-1.6l10.2,11.7L108.6,221z M101.9,220.7l-9.6-12.3l1.9-1.5l9.6,12.3L101.9,220.7z
		 M122.3,220.4L110.4,210l1.6-1.8l11.9,10.4L122.3,220.4z M95.2,220l-8.9-12.9l2-1.4l8.9,12.9L95.2,220z M129,219.5l-12.4-9.6
		l1.5-1.9l12.4,9.6L129,219.5z M88.5,218.8l-8.2-13.5l2-1.2l8.2,13.5L88.5,218.8z M135.6,218.1l-12.8-8.9l1.4-2l12.8,8.9
		L135.6,218.1z M81.7,217.2l-7-13.8l2.1-1.1l7,13.8L81.7,217.2z M142.1,216.4l-13.2-8.1l1.2-2l13.2,8.1L142.1,216.4z M75.2,215.3
		L69,201l2.2-1l6.3,14.3L75.2,215.3z M148.8,214.2l-14.1-7.1l1.1-2.1l14.1,7.1L148.8,214.2z M68.9,212.9l-5.5-14.7l2.2-0.8l5.5,14.7
		L68.9,212.9z M155,211.7l-14.4-6.3l1-2.2l14.4,6.3L155,211.7z M62.8,210.2l-4.5-14.9l2.3-0.7l4.5,14.9L62.8,210.2z M161.1,208.8
		l-14.6-5.5l0.8-2.2l14.6,5.5L161.1,208.8z M56.5,207l-3.4-15.2l2.3-0.5l3.4,15.2L56.5,207z M167.2,205.4l-15-4.5l0.7-2.3l15,4.5
		L167.2,205.4z M50.8,203.5l-2.6-15.4l2.4-0.4l2.6,15.4L50.8,203.5z M172.9,201.7l-15.4-3.5l0.5-2.3l15.4,3.5L172.9,201.7z
		 M45.2,199.7l-1.8-15.6l2.4-0.3l1.8,15.6L45.2,199.7z M178.3,197.8l-15.4-2.6l0.4-2.4l15.4,2.6L178.3,197.8z M39.9,195.6l-0.7-15.6
		l2.4-0.1l0.7,15.6L39.9,195.6z M183.5,193.5l-15.5-1.8l0.3-2.4l15.5,1.8L183.5,193.5z M37.1,190.9l-2.4,0l0.3-15.6l2.4,0
		L37.1,190.9z M188.6,188.7L173,188l0.1-2.4l15.6,0.7L188.6,188.7z M32.3,186.3l-2.4-0.2l1.1-15.6l2.4,0.2L32.3,186.3z M177.5,184.1
		l0-2.4l15.7-0.3l0,2.4L177.5,184.1z M27.8,181.4l-2.4-0.3l2-15.7l2.4,0.3L27.8,181.4z M181.9,179.8l-0.2-2.4l15.6-1.2l0.2,2.4
		L181.9,179.8z M23.5,176.1l-2.3-0.5l3.2-15.2l2.3,0.5L23.5,176.1z M186.1,175.2l-0.3-2.4l15.4-2l0.3,2.4L186.1,175.2z M19.7,170.6
		l-2.3-0.6l4-15.1l2.3,0.6L19.7,170.6z M189.9,170.6l-0.5-2.3l15.4-3.3l0.5,2.3L189.9,170.6z M193.5,165.5l-0.6-2.3l15.1-4.1
		l0.6,2.3L193.5,165.5z M16.2,165l-2.3-0.7l4.9-14.9l2.3,0.7L16.2,165z M196.7,160.2L196,158l14.8-4.9l0.7,2.3L196.7,160.2z
		 M13,159.2l-2.2-0.9l5.9-14.5l2.2,0.9L13,159.2z M199.7,154.8l-0.9-2.2l14.5-5.9l0.9,2.2L199.7,154.8z M10.1,152.9l-2.1-1l6.8-14
		l2.1,1L10.1,152.9z M202.2,149.4l-1-2.1l14.1-6.9l1,2.1L202.2,149.4z M7.8,146.7l-2.1-1.2l7.6-13.7l2.1,1.2L7.8,146.7z
		 M204.4,143.6l-1.2-2.1l13.7-7.6l1.2,2.1L204.4,143.6z M5.7,140.3l-2-1.3l8.4-13.3l2,1.3L5.7,140.3z M206.2,137.7l-1.3-2l13.1-8.3
		l1.3,2L206.2,137.7z M4.1,133.9l-1.9-1.4l9.2-12.6l1.9,1.4L4.1,133.9z M207.8,131.7l-1.4-1.9l12.6-9.3l1.4,1.9L207.8,131.7z
		 M2.8,127.1L1,125.6l10-11.9l1.8,1.5L2.8,127.1z M208.8,125.9l-1.5-1.8l12-10.2l1.5,1.8L208.8,125.9z M2.1,120.5l-1.7-1.6L11,107.5
		l1.7,1.6L2.1,120.5z M209.6,119.7l-1.6-1.7l11.4-10.8l1.6,1.7L209.6,119.7z M1.7,113.9L0,112.1l11.4-10.8l1.6,1.7L1.7,113.9z
		 M210,113.5l-1.7-1.6l10.7-11.3l1.7,1.6L210,113.5z M210,107.4l-1.8-1.5l10-11.9l1.8,1.5L210,107.4z M1.7,107.2l-1.5-1.8l12-10.2
		l1.5,1.8L1.7,107.2z M209.6,101.2l-1.9-1.4l9.2-12.6l1.9,1.4L209.6,101.2z M2,100.6l-1.4-1.9l12.6-9.3l1.4,1.9L2,100.6z
		 M208.9,95.3l-2-1.3l8.4-13.3l2,1.3L208.9,95.3z M2.9,93.7l-1.3-2l13.1-8.3l1.3,2L2.9,93.7z M207.7,89.2l-2.1-1.2l7.6-13.7l2.1,1.2
		L207.7,89.2z M4.1,87.2l-1.2-2.1l13.7-7.6l1.2,2.1L4.1,87.2z M206.2,83.2l-2.1-1l6.8-14l2.1,1L206.2,83.2z M5.7,80.7l-1-2.1
		l14.1-6.9l1,2.1L5.7,80.7z M204.3,77.3l-2.2-0.9l5.9-14.5l2.2,0.9L204.3,77.3z M7.7,74.4l-0.9-2.2l14.5-5.9l0.9,2.2L7.7,74.4z
		 M202.2,71.8l-2.3-0.7l4.9-14.9l2.3,0.7L202.2,71.8z M10.2,68l-0.7-2.3l14.8-4.9l0.7,2.3L10.2,68z M199.6,66.1l-2.3-0.6l4-15.1
		l2.3,0.6L199.6,66.1z M13,61.9l-0.6-2.3l15.1-4.1l0.6,2.3L13,61.9z M196.6,60.7l-2.3-0.5l3.2-15.2l2.3,0.5L196.6,60.7z M16.2,56.1
		l-0.5-2.3l15.4-3.3l0.5,2.3L16.2,56.1z M193.5,55.6l-2.4-0.3l2-15.6l2.4,0.3L193.5,55.6z M189.9,50.6l-2.4-0.2l1.2-15.6l2.4,0.2
		L189.9,50.6z M19.8,50.2l-0.3-2.4l15.4-2l0.3,2.4L19.8,50.2z M186,45.7l-2.4,0l0.3-15.6l2.4,0L186,45.7z M23.6,44.8l-0.2-2.4
		L39,41.3l0.2,2.4L23.6,44.8z M179.5,41.3l-0.7-15.6l2.4-0.1l0.7,15.6L179.5,41.3z M27.8,39.7l0-2.4L43.5,37l0,2.4L27.8,39.7z
		 M175.2,37.3l-1.8-15.6l2.4-0.3l1.8,15.6L175.2,37.3z M47.9,35.5l-15.6-0.7l0.1-2.4L48,33.1L47.9,35.5z M170.5,33.4L167.9,18
		l2.4-0.4l2.6,15.4L170.5,33.4z M52.7,31.7l-15.5-1.8l0.3-2.4l15.5,1.8L52.7,31.7z M165.6,29.8l-3.4-15.2l2.3-0.5l3.4,15.2
		L165.6,29.8z M57.7,28.3l-15.4-2.6l0.4-2.4l15.4,2.6L57.7,28.3z M160.5,26.5L156,11.5l2.3-0.7l4.5,14.9L160.5,26.5z M62.9,25.1
		l-15.4-3.5l0.5-2.3l15.4,3.5L62.9,25.1z M155.4,23.7L149.9,9l2.2-0.8l5.5,14.7L155.4,23.7z M68.1,22.4l-15-4.5l0.7-2.3l15,4.5
		L68.1,22.4z M149.9,21l-6.3-14.3l2.2-1l6.3,14.3L149.9,21z M73.7,20L59,14.5l0.8-2.2l14.6,5.5L73.7,20z M144.2,18.7l-7-13.8
		l2.1-1.1l7,13.8L144.2,18.7z M79.4,17.8L65,11.6l1-2.2l14.4,6.3L79.4,17.8z M138.7,16.9l-8.3-13.5l2-1.2l8.3,13.5L138.7,16.9z
		 M85.2,16.1L71.1,9l1.1-2.1l14.1,7.1L85.2,16.1z M132.8,15.3l-8.9-12.9l2-1.4l8.9,12.9L132.8,15.3z M90.8,14.7L77.6,6.6l1.2-2
		l13.2,8.1L90.8,14.7z M126.9,14.1l-9.6-12.3l1.9-1.5l9.6,12.3L126.9,14.1z M96.8,13.7L84,4.9l1.4-2l12.8,8.9L96.8,13.7z
		 M120.8,13.3L110.6,1.6l1.8-1.6l10.2,11.7L120.8,13.3z M102.9,13.1L90.5,3.5L92,1.6l12.4,9.6L102.9,13.1z M114.8,12.9l-11.1-11
		l1.7-1.7l11.1,11L114.8,12.9z M109,12.8L97.1,2.4l1.6-1.8L110.5,11L109,12.8z"/>
	<path class="st0" d="M108.7,221l-10.4-11.7l1.8-1.6l10.4,11.7L108.7,221z M115.4,220.9l-11.2-11l1.7-1.7l11.2,11L115.4,220.9z
		 M101.7,220.7l-9.5-12.3l1.9-1.5l9.5,12.3L101.7,220.7z M122.2,220.4L110.4,210l1.6-1.8l11.7,10.4L122.2,220.4z M95,219.9L86.1,207
		l2-1.4l8.9,12.9L95,219.9z M128.8,219.5l-12.2-9.7l1.5-1.9l12.2,9.7L128.8,219.5z M88.4,218.8l-8.2-13.5l2-1.2l8.2,13.5L88.4,218.8
		z M135.7,218.1l-12.9-8.8l1.3-2l12.9,8.8L135.7,218.1z M81.5,217.2l-7-13.9l2.1-1.1l7,13.9L81.5,217.2z M142.2,216.4l-13.5-8
		l1.2-2.1l13.5,8L142.2,216.4z M75.1,215.2l-6.2-14.3l2.2-0.9l6.2,14.3L75.1,215.2z M148.6,214.2l-13.8-7.2l1.1-2.1l13.8,7.2
		L148.6,214.2z M68.8,212.9l-5.4-14.7l2.2-0.8L71,212L68.8,212.9z M154.8,211.8l-14.1-6.4l1-2.2l14.1,6.4L154.8,211.8z M62.6,210.1
		L58,195.1l2.3-0.7l4.6,15.1L62.6,210.1z M161.1,208.8l-14.8-5.4l0.8-2.2l14.8,5.4L161.1,208.8z M167,205.5l-15-4.5l0.7-2.3l15,4.5
		L167,205.5z M50.7,203.4l-2.5-15.3l2.4-0.4L53,203L50.7,203.4z M172.7,201.9l-15.1-3.7l0.6-2.3l15.1,3.7L172.7,201.9z M45.1,199.6
		l-1.7-15.5l2.4-0.2l1.7,15.5L45.1,199.6z M178.4,197.8l-15.4-2.6l0.4-2.4l15.4,2.6L178.4,197.8z M39.8,195.5L39,179.8l2.4-0.1
		l0.8,15.7L39.8,195.5z M183.6,193.4l-15.7-1.6l0.2-2.4l15.7,1.6L183.6,193.4z M37.1,191l-2.4,0l0.1-15.8l2.4,0L37.1,191z
		 M188.5,188.8l-15.6-0.7l0.1-2.4l15.6,0.7L188.5,188.8z M32.2,186.2l-2.4-0.2l1.3-15.5l2.4,0.2L32.2,186.2z M177.6,184.1l0-2.4
		l15.6-0.1l0,2.4L177.6,184.1z M27.7,181.3l-2.4-0.3l2.2-15.4l2.4,0.3L27.7,181.3z M182,179.8l-0.2-2.4l15.6-1.2l0.2,2.4L182,179.8z
		 M23.5,176.1l-2.3-0.5l3.1-15.4l2.3,0.5L23.5,176.1z M186,175.4l-0.3-2.4l15.6-2.3l0.3,2.4L186,175.4z M19.7,170.7l-2.3-0.6
		l4.1-15.1l2.3,0.6L19.7,170.7z M189.9,170.6l-0.5-2.3l15.4-3.2l0.5,2.3L189.9,170.6z M193.4,165.5l-0.6-2.3l15.1-4l0.6,2.3
		L193.4,165.5z M16.1,164.8l-2.3-0.8l5.1-14.7l2.3,0.8L16.1,164.8z M196.7,160.2L196,158l14.8-4.8l0.7,2.3L196.7,160.2z M13,159
		l-2.2-0.9l5.9-14.5l2.2,0.9L13,159z M199.6,154.8l-0.9-2.2l14.5-5.9l0.9,2.2L199.6,154.8z M10.2,152.9l-2.2-1l6.7-14.2l2.2,1
		L10.2,152.9z M202.1,149.4l-1-2.1l14.2-6.9l1,2.1L202.1,149.4z M7.8,146.7l-2.1-1.2l7.6-13.7l2.1,1.2L7.8,146.7z M204.4,143.6
		l-1.2-2.1l13.7-7.6l1.2,2.1L204.4,143.6z M5.7,140.2l-2-1.3l8.5-13.1l2,1.3L5.7,140.2z M206.2,137.7l-1.3-2l13.2-8.3l1.3,2
		L206.2,137.7z M4.1,133.7l-1.9-1.4l9.2-12.7l1.9,1.4L4.1,133.7z M207.8,131.7l-1.4-1.9l12.6-9.2l1.4,1.9L207.8,131.7z M2.9,127.2
		L1,125.7l10-12.2l1.9,1.5L2.9,127.2z M208.9,125.9l-1.5-1.8l12-10.1l1.5,1.8L208.9,125.9z M2,120.4l-1.7-1.6L11,107.5l1.7,1.6
		L2,120.4z M209.6,119.8L208,118l11.4-10.7l1.6,1.7L209.6,119.8z M1.6,113.8L0,112l11.4-10.7l1.6,1.7L1.6,113.8z M210,113.6
		l-1.7-1.6l10.7-11.2l1.7,1.6L210,113.6z M210,107.6l-1.9-1.5l9.9-12.2l1.9,1.5L210,107.6z M1.6,107.1l-1.5-1.8l12-10.1l1.5,1.8
		L1.6,107.1z M209.6,101.4l-1.9-1.4l9.2-12.7l1.9,1.4L209.6,101.4z M2,100.5l-1.4-1.9l12.6-9.2l1.4,1.9L2,100.5z M208.8,95.3l-2-1.3
		l8.5-13.1l2,1.3L208.8,95.3z M2.9,93.6l-1.3-2l13.2-8.3l1.3,2L2.9,93.6z M207.7,89.2l-2.1-1.2l7.6-13.7l2.1,1.2L207.7,89.2z
		 M4.1,87.1L3,85l13.7-7.6l1.2,2.1L4.1,87.1z M206.3,83.4l-2.2-1l6.7-14.2l2.2,1L206.3,83.4z M5.7,80.7l-1-2.1l14.2-6.9l1,2.1
		L5.7,80.7z M204.4,77.5l-2.2-0.9l5.9-14.5l2.2,0.9L204.4,77.5z M7.7,74.3l-0.9-2.2l14.5-5.9l0.9,2.2L7.7,74.3z M202.1,71.7
		l-2.3-0.8l5.1-14.7l2.3,0.8L202.1,71.7z M10.3,67.9l-0.7-2.3l14.8-4.8l0.7,2.3L10.3,67.9z M199.6,66l-2.3-0.6l4.1-15.1l2.3,0.6
		L199.6,66z M13.1,61.9l-0.6-2.3l15.1-4l0.6,2.3L13.1,61.9z M196.7,60.8l-2.3-0.5l3.1-15.4l2.3,0.5L196.7,60.8z M16.2,56l-0.5-2.3
		l15.4-3.2l0.5,2.3L16.2,56z M193.5,55.5l-2.4-0.3l2.2-15.4l2.4,0.3L193.5,55.5z M189.9,50.5l-2.4-0.2l1.3-15.5l2.4,0.2L189.9,50.5z
		 M19.7,50.4L19.4,48L35,45.7l0.3,2.4L19.7,50.4z M186.2,45.8l-2.4,0l0.1-15.8l2.4,0L186.2,45.8z M23.5,44.9l-0.2-2.4L39,41.3
		l0.2,2.4L23.5,44.9z M179.6,41.4l-0.8-15.7l2.4-0.1l0.8,15.7L179.6,41.4z M27.9,39.5l0-2.4L43.4,37l0,2.4L27.9,39.5z M175.2,37.2
		l-1.7-15.5l2.4-0.2l1.7,15.5L175.2,37.2z M48,35.3l-15.6-0.7l0.1-2.4L48.1,33L48,35.3z M170.5,33.3L168,18l2.4-0.4l2.5,15.3
		L170.5,33.3z M52.8,31.6L37.2,30l0.2-2.4L53,29.2L52.8,31.6z M165.6,29.8L162,14.5l2.3-0.5l3.6,15.2L165.6,29.8z M57.6,28.3
		l-15.4-2.6l0.4-2.4L58,25.9L57.6,28.3z M160.7,26.7L156,11.6l2.3-0.7l4.7,15.1L160.7,26.7z M62.8,25.2l-15.1-3.7l0.6-2.3l15.1,3.7
		L62.8,25.2z M155.4,23.7L149.9,9l2.2-0.8l5.4,14.7L155.4,23.7z M68.2,22.4l-15-4.5l0.7-2.3l15,4.5L68.2,22.4z M149.9,21.1
		l-6.2-14.3l2.2-0.9l6.2,14.3L149.9,21.1z M73.8,19.9L59,14.5l0.8-2.2l14.8,5.4L73.8,19.9z M144.3,18.8l-7-13.9l2.1-1.1l7,13.9
		L144.3,18.8z M79.3,17.9l-14.1-6.4l1-2.2l14.1,6.4L79.3,17.9z M138.8,16.9l-8.2-13.5l2-1.2l8.2,13.5L138.8,16.9z M85.1,16.1
		L71.3,8.9l1.1-2.1L86.2,14L85.1,16.1z M132.9,15.4L124,2.4l2-1.4l8.9,12.9L132.9,15.4z M91.1,14.7l-13.5-8l1.2-2.1l13.5,8
		L91.1,14.7z M126.9,14.1l-9.5-12.3l1.9-1.5l9.5,12.3L126.9,14.1z M96.8,13.7L83.9,4.9l1.3-2l12.9,8.8L96.8,13.7z M120.9,13.3
		L110.5,1.6l1.8-1.6l10.4,11.7L120.9,13.3z M102.9,13.1L90.7,3.4l1.5-1.9l12.2,9.6L102.9,13.1z M115.1,12.9l-11.2-11l1.7-1.7
		l11.2,11L115.1,12.9z M109,12.8L97.2,2.4l1.6-1.8L110.5,11L109,12.8z"/>
</g>
</svg>
