<?xml version="1.0" encoding="utf-8"?>
<!-- Generator: Adobe Illustrator 21.1.0, SVG Export Plug-In . SVG Version: 6.00 Build 0)  -->
<svg version="1.1" id="Layer_1" xmlns="http://www.w3.org/2000/svg" xmlns:xlink="http://www.w3.org/1999/xlink" x="0px" y="0px"
	 viewBox="0 0 43 43" style="enable-background:new 0 0 43 43;" xml:space="preserve">
<style type="text/css">
	.st0{fill:#1E1E1E;}
</style>
<path class="st0" d="M21.5,2C32.2,2,41,10.8,41,21.5S32.2,41,21.5,41S2,32.2,2,21.5S10.8,2,21.5,2 M21.5,0C9.7,0,0.1,9.7,0.1,21.5
	S9.7,43,21.5,43S43,33.3,43,21.5S33.3,0,21.5,0L21.5,0z"/>
<path class="st0" d="M21.8,16.3l1.6-0.4c0.5-0.1,0.8-0.2,1-0.4c0.2-0.1,0.2-0.3,0.2-0.5s-0.1-0.3-0.2-0.4c-0.1-0.1-0.3-0.1-0.6-0.1
	c-0.2,0-0.5,0-0.7,0.1s-0.4,0.2-0.6,0.3l-1.7,1.3L21.8,16.3L21.8,16.3z M20.8,19.5L20.8,19.5l1.6,4.1h-3.2L20.8,19.5z M23,25.3
	c0.1,0.3,0.2,0.5,0.3,0.7c0.1,0.2,0.1,0.4,0.1,0.5c0,0.2-0.1,0.4-0.3,0.4C22.9,27,22.6,27,22.2,27v0.6h5.2V27c-0.4,0-0.7,0-0.9,0
	c-0.2-0.1-0.4-0.2-0.5-0.3c-0.2-0.1-0.3-0.3-0.4-0.6c-0.1-0.3-0.3-0.6-0.5-1.1l-3.3-8h-1l-3.6,9c-0.1,0.2-0.2,0.4-0.3,0.5
	c-0.1,0.1-0.2,0.2-0.3,0.3c-0.1,0.1-0.3,0.1-0.4,0.2c-0.2,0-0.3,0.1-0.6,0.1v0.5h3.7v-0.5c-0.4,0-0.7,0-0.9-0.1
	c-0.2-0.1-0.3-0.2-0.3-0.5c0-0.4,0.2-1,0.6-2h3.9L23,25.3z"/>
</svg>
