<?xml version="1.0" encoding="utf-8"?>
<!-- Generator: Adobe Illustrator 21.1.0, SVG Export Plug-In . SVG Version: 6.00 Build 0)  -->
<svg version="1.1" id="Layer_1" xmlns="http://www.w3.org/2000/svg" xmlns:xlink="http://www.w3.org/1999/xlink" x="0px" y="0px"
	 viewBox="0 0 176.7 36.9" style="enable-background:new 0 0 176.7 36.9;" xml:space="preserve">
<style type="text/css">
	.st0{fill:#1E1E1E;}
</style>
<g>
	<path class="st0" d="M8.8,27.6C7.6,30.3,7,32.2,7,33.2c0,0.8,0.3,1.2,0.9,1.4c0.6,0.2,1.4,0.3,2.6,0.3v1.5H0V35
		c0.6-0.1,1.1-0.2,1.6-0.3c0.4-0.1,0.8-0.3,1.2-0.5c0.3-0.2,0.6-0.5,0.9-0.9c0.3-0.4,0.5-0.8,0.7-1.3l10-25h2.8L26.3,29
		c0.5,1.3,1,2.3,1.3,3s0.8,1.3,1.2,1.7s0.9,0.7,1.4,0.8c0.5,0.2,1.2,0.3,2.1,0.3v1.6H18v-1.6c1.2-0.1,2.1-0.2,2.6-0.4
		c0.5-0.2,0.8-0.6,0.8-1.2c0-0.4-0.1-0.8-0.3-1.4c-0.2-0.6-0.4-1.2-0.7-2.1l-0.9-2.3H8.8z M18.7,25.3l-4.4-11.5h-0.2L9.7,25.3H18.7z
		 M19.1,1.3c0.5-0.4,1.1-0.7,1.7-0.9C21.4,0.1,22,0,22.7,0c0.7,0,1.2,0.1,1.6,0.4s0.6,0.6,0.6,1c0,0.6-0.2,1.1-0.7,1.4
		c-0.5,0.4-1.3,0.7-2.7,1l-4.4,1.1h-2.8L19.1,1.3z"/>
	<path class="st0" d="M58.9,15.6c-0.1-1.2-0.3-2.3-0.6-3.1c-0.3-0.8-0.7-1.5-1.2-2c-0.5-0.5-1.2-0.8-1.9-1c-0.8-0.2-1.6-0.3-2.7-0.3
		c-1,0-1.8,0-2.4,0.1c-0.6,0-1.1,0.1-1.4,0.2s-0.5,0.2-0.6,0.4C48,10,48,10.1,48,10.4v19.9c0,0.8,0.1,1.5,0.2,2.1
		c0.1,0.6,0.3,1.1,0.7,1.4c0.4,0.4,0.9,0.6,1.6,0.8c0.7,0.2,1.6,0.3,2.7,0.3v1.5H37.2V35c1.1,0,2.1-0.1,2.7-0.3
		c0.7-0.2,1.2-0.5,1.6-0.8s0.6-0.8,0.7-1.4c0.1-0.6,0.2-1.3,0.2-2.1V10.4c0-0.2,0-0.4-0.1-0.6c-0.1-0.2-0.3-0.3-0.6-0.4
		S41,9.3,40.5,9.3c-0.5,0-1.2-0.1-2-0.1c-0.9,0-1.8,0-2.6,0.1c-0.8,0.1-1.6,0.3-2.2,0.8c-0.6,0.4-1.1,1.1-1.5,1.9s-0.6,2-0.6,3.6H30
		l0.4-8.4h29.8l0.4,8.4H58.9z"/>
	<path class="st0" d="M86.2,8c2,0.8,3.7,1.9,5.1,3.2c1.5,1.4,2.6,3,3.4,4.8c0.8,1.8,1.3,3.9,1.3,6c0,2.1-0.4,4-1.3,5.8
		c-0.8,1.8-2,3.4-3.5,4.7c-1.5,1.3-3.2,2.4-5.1,3.2c-2,0.8-4.1,1.2-6.3,1.2c-2.3,0-4.4-0.4-6.3-1.2c-2-0.8-3.7-1.8-5.2-3.2
		c-1.5-1.3-2.6-2.9-3.5-4.7c-0.8-1.8-1.3-3.7-1.3-5.8c0-2.2,0.4-4.2,1.3-6c0.8-1.8,2-3.5,3.4-4.8c1.5-1.4,3.2-2.4,5.1-3.2
		c2-0.8,4.1-1.2,6.4-1.2C82.1,6.8,84.2,7.2,86.2,8z M83.8,33.5c1.2-0.6,2.2-1.4,3-2.4c0.8-1.1,1.5-2.3,1.9-3.8
		c0.4-1.5,0.7-3.2,0.7-5.1c0-2-0.2-3.8-0.7-5.3s-1.1-2.9-1.9-4.1s-1.8-2-3-2.6c-1.2-0.6-2.5-0.9-4-0.9c-1.5,0-2.8,0.3-4,0.9
		c-1.2,0.6-2.2,1.5-3,2.6s-1.5,2.5-1.9,4.1s-0.7,3.4-0.7,5.3c0,1.9,0.2,3.6,0.7,5.1c0.4,1.5,1.1,2.8,1.9,3.8c0.8,1.1,1.8,1.9,3,2.4
		c1.2,0.6,2.5,0.9,4,0.9C81.3,34.4,82.6,34.1,83.8,33.5z"/>
	<path class="st0" d="M129.2,7.2h11.1v1.5c-0.8,0-1.5,0.1-2,0.2c-0.5,0.2-0.9,0.5-1.2,0.9c-0.3,0.4-0.5,1-0.6,1.8
		c-0.1,0.7-0.1,1.7-0.1,2.8v14.7c0,1.3,0.1,2.3,0.2,3c0.1,0.7,0.3,1.3,0.6,1.7c0.3,0.4,0.7,0.7,1.3,0.8c0.6,0.1,1.3,0.2,2.3,0.2v1.5
		h-14.3V35c0.9,0,1.7-0.1,2.3-0.2s1-0.4,1.3-0.8s0.5-0.9,0.6-1.6c0.1-0.7,0.2-1.6,0.2-2.8V11.7h-0.2l-10.2,25.2h-2.8L107,11.7h-0.2
		v17.5c0,1.3,0.1,2.3,0.2,3c0.1,0.7,0.3,1.3,0.6,1.7s0.7,0.7,1.3,0.8c0.6,0.1,1.3,0.2,2.3,0.2v1.5H99.5V35c0.9,0,1.7-0.1,2.3-0.2
		c0.6-0.1,1-0.4,1.3-0.8s0.5-0.9,0.6-1.6c0.1-0.7,0.2-1.6,0.2-2.8V14.2c0-1.1-0.1-2-0.2-2.7c-0.1-0.7-0.3-1.3-0.6-1.7
		S102.5,9.2,102,9c-0.5-0.2-1.2-0.2-2.1-0.2V7.2h11.5l8.9,22.2h0.2L129.2,7.2z"/>
	<path class="st0" d="M166.9,8c2,0.8,3.7,1.9,5.1,3.2c1.5,1.4,2.6,3,3.4,4.8c0.8,1.8,1.3,3.9,1.3,6c0,2.1-0.4,4-1.3,5.8
		c-0.8,1.8-2,3.4-3.5,4.7s-3.2,2.4-5.1,3.2c-2,0.8-4.1,1.2-6.3,1.2c-2.3,0-4.4-0.4-6.3-1.2c-2-0.8-3.7-1.8-5.2-3.2
		c-1.5-1.3-2.6-2.9-3.5-4.7c-0.8-1.8-1.3-3.7-1.3-5.8c0-2.2,0.4-4.2,1.3-6c0.8-1.8,2-3.5,3.4-4.8c1.5-1.4,3.2-2.4,5.1-3.2
		c2-0.8,4.1-1.2,6.4-1.2C162.8,6.8,164.9,7.2,166.9,8z M164.5,33.5c1.2-0.6,2.2-1.4,3-2.4c0.8-1.1,1.5-2.3,1.9-3.8
		c0.4-1.5,0.7-3.2,0.7-5.1c0-2-0.2-3.8-0.7-5.3s-1.1-2.9-1.9-4.1s-1.8-2-3-2.6c-1.2-0.6-2.5-0.9-4-0.9c-1.5,0-2.8,0.3-4,0.9
		c-1.2,0.6-2.2,1.5-3,2.6s-1.5,2.5-1.9,4.1s-0.7,3.4-0.7,5.3c0,1.9,0.2,3.6,0.7,5.1c0.4,1.5,1.1,2.8,1.9,3.8c0.8,1.1,1.8,1.9,3,2.4
		c1.2,0.6,2.5,0.9,4,0.9C162,34.4,163.3,34.1,164.5,33.5z"/>
</g>
</svg>
