<?xml version="1.0" encoding="UTF-8" standalone="no"?>
<svg width="22px" height="22px" viewBox="0 0 22 22" version="1.1" xmlns="http://www.w3.org/2000/svg" xmlns:xlink="http://www.w3.org/1999/xlink">
    <!-- Generator: Sketch 47.1 (45422) - http://www.bohemiancoding.com/sketch -->
    <title>Shape</title>
    <desc>Created with Sketch.</desc>
    <defs></defs>
    <g id="Page-1" stroke="none" stroke-width="1" fill="none" fill-rule="evenodd">
        <g id="home" transform="translate(-843.000000, -41.000000)" fill-rule="nonzero" fill="#414141">
            <g id="navbar">
                <g id="Group-17" transform="translate(55.000000, 30.000000)">
                    <g id="Group-19" transform="translate(768.000000, 3.000000)">
                        <path d="M41.7912844,28.777615 L35.3032644,22.3130787 C38.1946646,18.904505 38.0536207,13.7798908 34.8331181,10.5593763 L34.8331181,10.5593763 C31.4480642,7.15080263 25.9238443,7.15080263 22.5387904,10.5358689 C19.1537365,13.9209352 19.1537365,19.4451753 22.5387904,22.8302416 C24.2313174,24.5227747 26.4645126,25.3690413 28.6742006,25.3690413 C30.6723227,25.3690413 32.6704447,24.6873265 34.2924497,23.3003897 L40.7804697,29.7884334 C40.9215136,29.9294778 41.1095721,30 41.2741234,30 C41.4386746,30 41.6267331,29.9294778 41.7677771,29.7884334 C42.0733722,29.5063445 42.0733722,29.0597038 41.7912844,28.777615 Z M23.5496051,21.8194232 C20.7052196,18.9985346 20.7052196,14.3675759 23.5496051,11.5466873 C24.9600442,10.136243 26.8406297,9.43102089 28.6977079,9.43102089 C30.5547861,9.43102089 32.4118642,10.136243 33.8458107,11.5466873 L33.8458107,11.5466873 C36.6666889,14.3675759 36.6666889,18.9985346 33.8223034,21.8194232 C31.0014251,24.6638191 26.3704833,24.6638191 23.5496051,21.8194232 Z" id="Shape"></path>
                    </g>
                </g>
            </g>
        </g>
    </g>
</svg>