<?xml version="1.0" encoding="utf-8"?>
<!-- Generator: Adobe Illustrator 21.1.0, SVG Export Plug-In . SVG Version: 6.00 Build 0)  -->
<svg version="1.1" id="Layer_1" xmlns="http://www.w3.org/2000/svg" xmlns:xlink="http://www.w3.org/1999/xlink" x="0px" y="0px"
	 viewBox="0 0 22 22" style="enable-background:new 0 0 22 22;" xml:space="preserve">
<style type="text/css">
	.st0{fill:#D8A073;}
</style>
<title>Shape</title>
<desc>Created with Sketch.</desc>
<g id="Page-1">
	<g id="home" transform="translate(-843.000000, -41.000000)">
		<g id="navbar">
			<g id="Group-17" transform="translate(55.000000, 30.000000)">
				<g id="Group-19" transform="translate(768.000000, 3.000000)">
					<path id="Shape" class="st0" d="M41.8,28.8l-6.5-6.5c2.9-3.4,2.8-8.5-0.5-11.8l0,0c-3.4-3.4-8.9-3.4-12.3,0s-3.4,8.9,0,12.3
						c1.7,1.7,3.9,2.5,6.1,2.5c2,0,4-0.7,5.6-2.1l6.5,6.5c0.1,0.1,0.3,0.2,0.5,0.2s0.4-0.1,0.5-0.2C42.1,29.5,42.1,29.1,41.8,28.8z
						 M23.5,21.8c-2.8-2.8-2.8-7.5,0-10.3c1.4-1.4,3.3-2.1,5.1-2.1s3.7,0.7,5.1,2.1l0,0c2.8,2.8,2.8,7.5,0,10.3
						C31,24.7,26.4,24.7,23.5,21.8z"/>
				</g>
			</g>
		</g>
	</g>
</g>
</svg>
