<?xml version="1.0" encoding="utf-8"?>
<!-- Generator: Adobe Illustrator 21.1.0, SVG Export Plug-In . SVG Version: 6.00 Build 0)  -->
<svg version="1.1" id="Layer_1" xmlns="http://www.w3.org/2000/svg" xmlns:xlink="http://www.w3.org/1999/xlink" x="0px" y="0px"
	 viewBox="0 0 403.3 260.5" style="enable-background:new 0 0 403.3 260.5;" xml:space="preserve">
<style type="text/css">
	.st0{fill:#FFFFFF;}
</style>
<g>
	<g>
		<path class="st0" d="M0,220.7h15.8c0,2.3,0.8,3.9,2.3,4.9c1.5,1,3.4,1.5,5.8,1.5c2,0,3.6-0.3,4.8-1c1.2-0.6,1.9-1.7,1.9-3.2
			c0-0.9-0.3-1.6-0.8-2.2c-0.5-0.6-1.3-1.1-2.4-1.5c-1.1-0.4-2.5-0.9-4.2-1.5c-1.7-0.5-3.8-1.2-6.2-1.9c-2.2-0.7-4.2-1.4-6.1-2.1
			c-1.9-0.7-3.6-1.7-5-2.7c-1.4-1.1-2.6-2.4-3.4-4c-0.8-1.6-1.2-3.5-1.2-5.9c0-2.7,0.5-5,1.6-6.9c1.1-2,2.6-3.6,4.5-4.8
			c1.9-1.3,4.2-2.2,6.9-2.9c2.7-0.6,5.6-1,8.8-1c3.9,0,7.3,0.4,10.2,1.3c2.8,0.9,5.2,2.1,7,3.6c1.8,1.5,3.2,3.4,4,5.4
			c0.9,2.1,1.3,4.3,1.3,6.7H29.6c0-2.1-0.5-3.7-1.6-4.9c-1.1-1.2-2.7-1.7-4.9-1.7c-1.7,0-3.1,0.4-4.3,1.1c-1.2,0.7-1.8,1.8-1.8,3.3
			c0,1,0.3,1.8,0.8,2.4c0.6,0.6,1.4,1.1,2.5,1.6c1.1,0.5,2.5,1,4.1,1.5c1.6,0.5,3.5,1.1,5.5,1.8c2.3,0.6,4.4,1.2,6.3,1.9
			c2,0.7,3.7,1.6,5.2,2.6c1.5,1,2.7,2.3,3.5,3.8c0.9,1.5,1.3,3.5,1.3,5.8c0,3.1-0.6,5.8-1.8,7.9s-2.9,4-5,5.3
			c-2.1,1.4-4.5,2.4-7.2,3c-2.7,0.6-5.6,0.9-8.6,0.9c-7.5,0-13.3-1.6-17.4-4.7C2.1,231.2,0,226.6,0,220.7z"/>
		<path class="st0" d="M56.6,170.1c0-2.9,1-5.3,3-7.2c2-2,4.4-2.9,7.4-2.9c1.5,0,2.8,0.3,4.1,0.8c1.2,0.5,2.4,1.2,3.3,2.1
			c1,0.9,1.7,2,2.2,3.3c0.5,1.3,0.8,2.6,0.8,4c0,1.4-0.3,2.7-0.8,4c-0.5,1.2-1.3,2.3-2.2,3.3c-1,0.9-2.1,1.7-3.3,2.2
			c-1.3,0.5-2.6,0.8-4.1,0.8c-1.5,0-2.8-0.3-4.1-0.8c-1.2-0.5-2.3-1.3-3.3-2.2c-0.9-0.9-1.7-2-2.2-3.3
			C56.8,172.8,56.6,171.5,56.6,170.1z M58.9,237.6v-50.7h16.1v50.7H58.9z"/>
		<path class="st0" d="M87.3,212.2c0-3.7,0.6-7.2,1.7-10.4c1.1-3.2,2.9-6,5.1-8.4c2.3-2.4,5.1-4.3,8.3-5.7c3.3-1.4,7.1-2.1,11.3-2.1
			c4.1,0,7.7,0.6,11,1.9c3.3,1.3,6,3,8.3,5.2c2.3,2.2,4,4.8,5.3,7.9c1.2,3,1.9,6.3,1.9,9.9c0,1,0,1.8-0.1,2.6
			c-0.1,0.7-0.2,1.8-0.4,3.2h-36.4c0,1.5,0.2,2.9,0.6,4.2c0.4,1.3,1,2.5,1.9,3.5c0.8,1,2,1.8,3.4,2.3c1.4,0.6,3.1,0.8,5.1,0.8
			c2.9,0,5-0.5,6.5-1.6c1.4-1,2.4-2.3,3-3.8h15.8c-0.4,2.4-1.3,4.6-2.6,6.7c-1.3,2.1-3,3.9-5.1,5.5c-2.1,1.6-4.6,2.8-7.5,3.7
			c-2.9,0.9-6.2,1.4-9.9,1.4c-4.4,0-8.3-0.7-11.7-2.1c-3.4-1.4-6.2-3.3-8.6-5.7c-2.3-2.4-4-5.3-5.2-8.5
			C87.9,219.5,87.3,216,87.3,212.2z M103.3,206.9h21.1c0-2.9-1-5.2-2.9-6.9c-1.9-1.7-4.5-2.5-7.6-2.5c-3,0-5.5,0.8-7.5,2.4
			C104.4,201.6,103.3,203.9,103.3,206.9z"/>
		<path class="st0" d="M151.2,237.6v-50.7h15.6v7.3c1.1-2.3,2.9-4.3,5.3-6c2.4-1.7,5.7-2.6,9.7-2.6c3.8,0,7,0.8,9.5,2.5
			c2.5,1.7,4.3,3.9,5.5,6.7c0.6-1.2,1.4-2.4,2.4-3.5c1-1.1,2.1-2.1,3.4-2.9c1.3-0.8,2.9-1.5,4.7-2c1.8-0.5,3.8-0.7,6-0.7
			c3.5,0,6.4,0.6,8.7,1.8s4,2.8,5.3,4.8c1.3,2,2.1,4.2,2.6,6.7c0.4,2.5,0.7,5,0.7,7.5v31.2h-15.6v-27.3c0-3.4-0.6-6.1-1.8-8
			c-1.2-1.9-3.2-2.9-5.9-2.9c-1.2,0-2.3,0.2-3.4,0.6c-1.1,0.4-2,1.1-2.7,2.1c-0.8,1-1.4,2.3-1.8,4c-0.4,1.7-0.6,3.7-0.6,6.1v25.5
			h-15.6v-27.5c0-3.4-0.6-6.1-1.8-8c-1.2-1.9-3.2-2.8-5.9-2.8c-2.5,0-4.5,0.9-6.2,2.8c-1.6,1.9-2.5,5.3-2.5,10.3v25.1H151.2z"/>
		<path class="st0" d="M243.5,260.5v-73.6h16.1v7.2c1.3-2.3,3.3-4.3,6.1-6c2.8-1.7,6.2-2.5,10.2-2.5c3.4,0,6.5,0.7,9.4,2.1
			c2.9,1.4,5.5,3.2,7.6,5.6c2.2,2.3,3.9,5.2,5.1,8.4c1.2,3.3,1.8,6.8,1.8,10.6c0,3.8-0.6,7.3-1.8,10.6c-1.2,3.3-2.9,6.1-5.1,8.4
			c-2.2,2.4-4.7,4.2-7.6,5.6c-2.9,1.4-6,2.1-9.4,2.1c-4,0-7.4-0.8-10.2-2.5c-2.8-1.7-4.8-3.7-6.1-6v30.2H243.5z M259.6,212.2
			c0,1.7,0.3,3.4,0.9,5c0.6,1.6,1.4,3,2.5,4.1s2.3,2.1,3.8,2.8c1.5,0.7,3.1,1.1,4.9,1.1c1.8,0,3.5-0.4,4.9-1.1
			c1.5-0.7,2.7-1.6,3.8-2.8c1.1-1.1,1.9-2.5,2.5-4.1c0.6-1.6,0.9-3.3,0.9-5c0-1.7-0.3-3.4-0.9-5c-0.6-1.6-1.4-2.9-2.5-4.1
			c-1.1-1.2-2.3-2.1-3.8-2.8c-1.5-0.7-3.1-1-4.9-1c-1.8,0-3.5,0.3-4.9,1c-1.5,0.7-2.7,1.6-3.8,2.8c-1.1,1.2-1.9,2.5-2.5,4.1
			C259.9,208.8,259.6,210.5,259.6,212.2z"/>
		<path class="st0" d="M310.5,237.6v-50.7h16.1v8.2c1.2-2.4,3.2-4.5,6-6.3c2.8-1.8,6-2.7,9.8-2.7c1.7,0,3.3,0.3,4.6,0.9v14.6
			c-1.1-0.3-2.1-0.5-2.9-0.6c-0.8-0.1-1.7-0.2-2.6-0.2c-4.6,0-8.2,1.3-10.8,3.9c-2.7,2.6-4,7-4,13.2v19.8H310.5z"/>
		<path class="st0" d="M350.3,212.2c0-3.7,0.6-7.2,1.7-10.4c1.1-3.2,2.9-6,5.1-8.4c2.3-2.4,5.1-4.3,8.3-5.7
			c3.3-1.4,7.1-2.1,11.3-2.1c4.1,0,7.7,0.6,11,1.9c3.3,1.3,6,3,8.3,5.2c2.3,2.2,4,4.8,5.3,7.9c1.2,3,1.9,6.3,1.9,9.9
			c0,1,0,1.8-0.1,2.6c-0.1,0.7-0.2,1.8-0.4,3.2h-36.4c0,1.5,0.2,2.9,0.6,4.2c0.4,1.3,1,2.5,1.9,3.5c0.8,1,2,1.8,3.4,2.3
			c1.4,0.6,3.1,0.8,5.1,0.8c2.9,0,5-0.5,6.5-1.6c1.4-1,2.4-2.3,3-3.8h15.8c-0.4,2.4-1.3,4.6-2.6,6.7c-1.3,2.1-3,3.9-5.1,5.5
			c-2.1,1.6-4.6,2.8-7.5,3.7c-2.9,0.9-6.2,1.4-9.9,1.4c-4.4,0-8.3-0.7-11.7-2.1c-3.4-1.4-6.2-3.3-8.6-5.7c-2.3-2.4-4-5.3-5.2-8.5
			C350.9,219.5,350.3,216,350.3,212.2z M366.4,206.9h21.1c0-2.9-1-5.2-2.9-6.9c-1.9-1.7-4.5-2.5-7.6-2.5c-3,0-5.5,0.8-7.5,2.4
			C367.4,201.6,366.4,203.9,366.4,206.9z"/>
	</g>
	<g>
		<path class="st0" d="M1,123c0-2.9,0.5-5.7,1.4-8.4s2.3-5.1,4-7.2s4.1-3.8,6.8-5c2.7-1.3,5.9-1.9,9.6-1.9c3.2,0,6,0.5,8.4,1.4
			c2.4,0.9,4.4,2.2,6,3.7s2.9,3.3,3.8,5.3s1.4,4,1.6,6.2h-8.2c-0.3-2.6-1.4-4.8-3.2-6.6c-1.9-1.8-4.6-2.7-8.2-2.7
			c-2.4,0-4.4,0.4-6.2,1.2c-1.7,0.8-3.1,1.9-4.3,3.3c-1.1,1.4-2,3-2.5,4.8c-0.5,1.8-0.8,3.7-0.8,5.7c0,2,0.3,3.9,0.8,5.7
			c0.5,1.8,1.4,3.4,2.5,4.8c1.1,1.4,2.6,2.5,4.3,3.3c1.7,0.8,3.8,1.2,6.3,1.2c3.4,0,6-0.8,7.7-2.3c1.7-1.5,2.9-3.5,3.6-6.1h8.2
			c-0.3,2.1-0.9,4.1-1.9,6c-0.9,1.9-2.2,3.6-3.9,5c-1.7,1.4-3.7,2.6-6,3.4c-2.3,0.9-5,1.3-8,1.3c-3.7,0-6.9-0.6-9.6-1.9
			c-2.7-1.3-5-2.9-6.8-5c-1.8-2.1-3.1-4.5-4-7.2C1.5,128.6,1,125.9,1,123z"/>
		<path class="st0" d="M50.1,123c0-3,0.5-5.9,1.6-8.6c1.1-2.7,2.6-5.1,4.5-7.2s4.3-3.7,7.1-4.9c2.8-1.2,5.9-1.8,9.3-1.8
			c3.4,0,6.5,0.6,9.3,1.8c2.8,1.2,5.1,2.8,7.1,4.9s3.5,4.5,4.6,7.2c1.1,2.7,1.6,5.6,1.6,8.6c0,3-0.5,5.9-1.6,8.6s-2.6,5.1-4.5,7.2
			s-4.3,3.7-7.1,4.9c-2.8,1.2-5.9,1.8-9.3,1.8c-3.5,0-6.6-0.6-9.3-1.8c-2.7-1.2-5.1-2.8-7.1-4.9s-3.5-4.5-4.5-7.2S50.1,126,50.1,123
			z M58.3,123c0,2.1,0.3,4,1,5.8s1.7,3.4,2.9,4.7c1.3,1.4,2.8,2.4,4.5,3.3s3.7,1.2,5.9,1.2c2.2,0,4.2-0.4,5.9-1.2
			c1.8-0.8,3.3-1.9,4.5-3.3c1.3-1.4,2.2-2.9,2.9-4.7s1-3.7,1-5.8c0-2.1-0.3-4-1-5.8s-1.7-3.4-2.9-4.8c-1.3-1.4-2.8-2.5-4.5-3.3
			c-1.8-0.8-3.7-1.2-5.9-1.2c-2.2,0-4.2,0.4-5.9,1.2s-3.2,1.9-4.5,3.3c-1.3,1.4-2.2,3-2.9,4.8S58.3,120.9,58.3,123z"/>
		<path class="st0" d="M106.3,144.3v-42.7h8.2v7.7c1.3-2.7,3.2-4.8,5.7-6.4c2.5-1.6,5.7-2.4,9.5-2.4c2.8,0,5.2,0.5,7.3,1.4
			c2.1,0.9,3.9,2.4,5.4,4.2c1.2,1.6,2,3.4,2.5,5.4s0.8,4.5,0.8,7.5v25.2h-8.2v-22.6c0-1.9-0.2-3.7-0.6-5.5c-0.4-1.7-1-3.2-1.8-4.4
			c-0.8-1.2-2-2.2-3.3-2.9c-1.4-0.7-3-1.1-5-1.1c-2.1,0-3.9,0.4-5.4,1.2c-1.5,0.8-2.8,1.9-3.8,3.2c-1,1.3-1.7,2.9-2.3,4.6
			c-0.5,1.7-0.8,3.6-0.8,5.4v21.9H106.3z"/>
		<path class="st0" d="M155.9,129.9h7.9c0,3.2,1,5.5,2.9,6.9c1.9,1.3,4.3,2,7.3,2c2.6,0,4.6-0.5,6.2-1.5c1.5-1,2.3-2.5,2.3-4.6
			c0-1.1-0.3-2-0.8-2.7s-1.3-1.3-2.4-1.8s-2.5-1.1-4.2-1.6c-1.7-0.5-3.8-1.2-6.2-1.9c-1.6-0.5-3-1-4.4-1.6c-1.4-0.6-2.6-1.4-3.7-2.3
			c-1.1-0.9-1.9-2-2.5-3.3c-0.6-1.3-0.9-2.8-0.9-4.6c0-2.1,0.4-4,1.3-5.5s2-2.9,3.4-3.9s3.1-1.8,4.9-2.3c1.9-0.5,3.8-0.7,5.9-0.7
			c2.5,0,4.7,0.3,6.8,1c2.1,0.7,3.9,1.7,5.4,3c1.5,1.3,2.7,2.8,3.5,4.5c0.8,1.7,1.3,3.7,1.3,5.8h-8c0-2.5-0.7-4.5-2.2-5.8
			c-1.5-1.4-3.6-2-6.4-2c-2.3,0-4.2,0.5-5.7,1.4c-1.5,1-2.3,2.4-2.3,4.3c0,1.1,0.3,1.9,0.8,2.6c0.5,0.7,1.3,1.3,2.4,1.8
			c1.1,0.5,2.3,1,3.8,1.4s3.3,1,5.3,1.6c1.5,0.5,3.1,1,4.6,1.6c1.6,0.6,2.9,1.4,4.1,2.3c1.2,0.9,2.2,2,2.9,3.4
			c0.8,1.4,1.1,3,1.1,5.1c0,2.1-0.4,4-1.3,5.6c-0.9,1.6-2,2.9-3.5,4c-1.5,1.1-3.2,1.9-5.3,2.4c-2,0.5-4.2,0.8-6.5,0.8
			c-2.5,0-4.8-0.3-7-0.9c-2.2-0.6-4.1-1.6-5.7-2.9s-2.9-2.9-3.8-4.8C156.4,134.8,155.9,132.5,155.9,129.9z"/>
		<path class="st0" d="M198.6,122.8c0-3.2,0.5-6.1,1.5-8.8c1-2.7,2.4-5.1,4.1-7.1s3.9-3.6,6.5-4.7c2.5-1.1,5.4-1.7,8.5-1.7
			c2.9,0,5.7,0.5,8.1,1.4s4.6,2.3,6.4,4.1c1.8,1.8,3.2,3.8,4.2,6.2c1,2.3,1.5,4.9,1.5,7.6c0,0.6,0,1.4,0,2.3c0,0.9-0.1,1.9-0.3,3.1
			H207c0,1.8,0.3,3.5,0.8,5.1c0.5,1.6,1.3,3,2.3,4.2c1,1.2,2.4,2.2,4,2.9c1.6,0.7,3.6,1.1,5.8,1.1c3.2,0,5.7-0.7,7.4-2
			c1.7-1.3,2.8-2.9,3.5-4.7h8.3c-0.4,1.8-1.1,3.5-2.1,5.1c-1,1.6-2.4,3.1-4,4.3c-1.6,1.3-3.5,2.3-5.7,3s-4.7,1.1-7.4,1.1
			c-3.6,0-6.7-0.6-9.4-1.9c-2.7-1.3-4.9-2.9-6.6-5c-1.8-2.1-3.1-4.5-4-7.2C199,128.6,198.6,125.7,198.6,122.8z M207.1,118.9h24.5
			c0-3.5-1.1-6.3-3.4-8.4c-2.3-2.1-5.2-3.1-8.8-3.1c-3.4,0-6.3,1-8.6,2.9C208.4,112.3,207.2,115.1,207.1,118.9z"/>
		<path class="st0" d="M244.4,160.2c0.9,0.3,1.7,0.5,2.3,0.6c0.6,0.1,1.1,0.2,1.6,0.2c1.4,0,2.5-0.5,3.3-1.4
			c0.8-0.9,1.2-2.4,1.2-4.4v-53.6h8.2v54.2c0,2.3-0.3,4.3-0.8,5.9c-0.5,1.6-1.2,2.9-2.1,3.9c-0.9,1-1.9,1.7-3.1,2.1
			c-1.2,0.4-2.5,0.6-4,0.6c-1.1,0-2.3-0.1-3.6-0.3c-1.3-0.2-2.4-0.5-3.1-0.8V160.2z M250.3,85.4c0-1.8,0.6-3.4,1.9-4.7
			c1.3-1.3,2.8-2,4.7-2c1.8,0,3.4,0.7,4.7,2c1.3,1.3,1.9,2.9,1.9,4.7c0,1.8-0.6,3.3-1.9,4.6s-2.9,1.9-4.7,1.9
			c-1.8,0-3.3-0.6-4.6-1.9C251,88.8,250.3,87.2,250.3,85.4z"/>
		<path class="st0" d="M273.5,123c0-3,0.5-5.9,1.6-8.6c1.1-2.7,2.6-5.1,4.5-7.2s4.3-3.7,7.1-4.9c2.8-1.2,5.9-1.8,9.3-1.8
			c3.4,0,6.5,0.6,9.3,1.8c2.8,1.2,5.1,2.8,7.1,4.9s3.5,4.5,4.6,7.2c1.1,2.7,1.6,5.6,1.6,8.6c0,3-0.5,5.9-1.6,8.6s-2.6,5.1-4.5,7.2
			s-4.3,3.7-7.1,4.9c-2.8,1.2-5.9,1.8-9.3,1.8c-3.5,0-6.6-0.6-9.3-1.8c-2.7-1.2-5.1-2.8-7.1-4.9s-3.5-4.5-4.5-7.2
			S273.5,126,273.5,123z M281.7,123c0,2.1,0.3,4,1,5.8s1.7,3.4,2.9,4.7c1.3,1.4,2.8,2.4,4.5,3.3s3.7,1.2,5.9,1.2
			c2.2,0,4.2-0.4,5.9-1.2c1.8-0.8,3.3-1.9,4.5-3.3c1.3-1.4,2.2-2.9,2.9-4.7s1-3.7,1-5.8c0-2.1-0.3-4-1-5.8s-1.7-3.4-2.9-4.8
			c-1.3-1.4-2.8-2.5-4.5-3.3c-1.8-0.8-3.7-1.2-5.9-1.2c-2.2,0-4.2,0.4-5.9,1.2s-3.2,1.9-4.5,3.3c-1.3,1.4-2.2,3-2.9,4.8
			S281.7,120.9,281.7,123z"/>
	</g>
	<g>
		<path class="st0" d="M25.6,64.2H0.3v-8.9h25.3c0.9,0,1.7-0.1,2.5-0.4c0.8-0.3,1.5-0.7,2.1-1.2s1-1.2,1.4-1.9
			c0.3-0.7,0.5-1.6,0.5-2.5c0-0.9-0.2-1.7-0.5-2.5c-0.3-0.8-0.8-1.4-1.4-1.9c-0.6-0.5-1.3-0.9-2.1-1.2c-0.8-0.3-1.6-0.4-2.5-0.4H0.3
			v-8.9h25.4c2,0,3.8,0.3,5.6,1c1.7,0.7,3.2,1.7,4.5,3c1.3,1.3,2.3,2.9,3,4.7s1.1,3.9,1.1,6.2c0,2.3-0.4,4.4-1.1,6.2s-1.7,3.4-3,4.7
			c-1.3,1.3-2.8,2.3-4.5,3C29.5,63.9,27.6,64.2,25.6,64.2z"/>
		<path class="st0" d="M38.8,27.6H12.3v-8.4h3.8c-1.4-0.7-2.5-1.9-3.3-3.4s-1.2-3.3-1.2-5.4c0-1.8,0.3-3.3,0.9-4.5s1.3-2.1,2.2-2.9
			c1-0.8,2.2-1.4,3.5-1.7C19.5,1.2,21.1,1,23,1h15.7v8.4H25.2c-1.9,0-3.4,0.3-4.6,1c-1.2,0.7-1.8,1.9-1.8,3.6c0,1.8,0.6,3.1,1.8,3.9
			c1.2,0.9,2.8,1.3,4.9,1.3h13.3V27.6z"/>
	</g>
	<g>
		<path class="st0" d="M65.8,64.4V0h26.7c4.4,0,8,0.6,10.7,1.9c2.7,1.3,4.9,2.8,6.4,4.7c1.5,1.8,2.5,3.8,3,5.8
			c0.5,2.1,0.8,3.9,0.8,5.5c0,2.2-0.3,4.1-1,5.6c-0.6,1.6-1.5,2.9-2.5,4c-1,1.1-2.1,2-3.3,2.7c-1.2,0.7-2.3,1.1-3.4,1.4
			c0.9,0.2,2,0.7,3.3,1.3c1.2,0.6,2.4,1.5,3.5,2.6s2,2.6,2.8,4.3c0.8,1.7,1.1,3.8,1.1,6.2c0,1.6-0.3,3.5-0.8,5.6
			c-0.5,2.1-1.5,4.1-3,6c-1.5,1.9-3.6,3.4-6.3,4.7c-2.7,1.3-6.3,1.9-10.7,1.9H65.8z M80.7,25.9h8.9c1.8,0,3.3-0.2,4.5-0.7
			c1.1-0.5,2.1-1.1,2.7-1.8c0.7-0.7,1.1-1.5,1.4-2.4c0.2-0.9,0.4-1.7,0.4-2.5c0-0.7-0.1-1.5-0.3-2.3c-0.2-0.8-0.6-1.6-1.3-2.3
			c-0.6-0.7-1.5-1.3-2.7-1.8c-1.2-0.5-2.7-0.7-4.6-0.7h-8.9V25.9z M80.7,53.1h9.3c1.8,0,3.3-0.3,4.4-0.8c1.1-0.5,2-1.2,2.7-2
			c0.7-0.8,1.1-1.7,1.4-2.6c0.2-0.9,0.4-1.8,0.4-2.6c0-0.8-0.1-1.6-0.4-2.5c-0.2-0.9-0.7-1.8-1.3-2.6c-0.6-0.8-1.5-1.5-2.7-2
			c-1.2-0.6-2.6-0.8-4.4-0.8h-9.4V53.1z"/>
		<path class="st0" d="M123.6,46.4V20.1h14.1v22.7c0,3.2,0.6,5.8,1.7,7.7c1.1,2,3.2,3,6.1,3s5.1-1,6.5-3c1.4-2,2.1-4.8,2.1-8.2V20.1
			H168v44.3H154v-6.3c-1.2,2.3-3.1,4.2-5.6,5.5c-2.5,1.3-5.5,2-9,2c-3.1,0-5.6-0.5-7.6-1.4s-3.6-2.2-4.8-3.6
			c-1.4-1.7-2.3-3.7-2.8-5.9S123.6,49.6,123.6,46.4z"/>
		<path class="st0" d="M177.1,42.2c0-3.3,0.5-6.3,1.5-9.1c1-2.8,2.5-5.3,4.5-7.4c2-2.1,4.4-3.8,7.3-5c2.9-1.2,6.2-1.8,9.9-1.8
			c3.6,0,6.8,0.6,9.6,1.7c2.8,1.1,5.3,2.6,7.3,4.6c2,1.9,3.5,4.2,4.6,6.9c1.1,2.7,1.6,5.5,1.6,8.6c0,0.9,0,1.6-0.1,2.2
			c-0.1,0.6-0.2,1.6-0.4,2.8h-31.8c0,1.3,0.2,2.5,0.5,3.7c0.3,1.2,0.9,2.2,1.6,3c0.7,0.9,1.7,1.6,2.9,2c1.2,0.5,2.7,0.7,4.5,0.7
			c2.5,0,4.4-0.5,5.7-1.4s2.1-2,2.6-3.3h13.8c-0.4,2.1-1.1,4.1-2.3,5.9c-1.2,1.8-2.6,3.4-4.5,4.8c-1.8,1.4-4,2.5-6.6,3.3
			s-5.4,1.2-8.6,1.2c-3.9,0-7.3-0.6-10.2-1.8c-3-1.2-5.5-2.9-7.5-5c-2-2.1-3.5-4.6-4.6-7.5C177.6,48.5,177.1,45.5,177.1,42.2z
			 M191.2,37.5h18.5c0-2.5-0.8-4.5-2.5-6s-3.9-2.2-6.7-2.2c-2.6,0-4.8,0.7-6.6,2.1C192,32.9,191.2,34.9,191.2,37.5z"/>
		<path class="st0" d="M233,64.4V20.1H247v6.4c1.2-2.4,3.1-4.2,5.6-5.6c2.5-1.3,5.5-2,9-2c3.1,0,5.6,0.5,7.5,1.4
			c2,1,3.6,2.2,4.8,3.6c1.4,1.7,2.3,3.7,2.8,5.9s0.7,5,0.7,8.1v26.3h-14.1V41.7c0-3.1-0.6-5.7-1.7-7.7s-3.1-3-6-3
			c-2.9,0-5.1,1-6.5,3s-2.1,4.7-2.1,8.2v22.3H233z"/>
	</g>
</g>
</svg>
