<?xml version="1.0" encoding="utf-8"?>
<!-- Generator: Adobe Illustrator 21.1.0, SVG Export Plug-In . SVG Version: 6.00 Build 0)  -->
<svg version="1.1" id="Layer_1" xmlns="http://www.w3.org/2000/svg" xmlns:xlink="http://www.w3.org/1999/xlink" x="0px" y="0px"
	 viewBox="0 0 1433.7 763.2" style="enable-background:new 0 0 1433.7 763.2;" xml:space="preserve">
<style type="text/css">
	.st0{fill:#FFFFFF;}
</style>
<g>
	<path class="st0" d="M1083.1,101.6c0.6,0.1,0.9,0.4,1.1,1l0.1-0.1C1083.9,102.2,1083.6,101.9,1083.1,101.6L1083.1,101.6z"/>
	<g>
		<path class="st0" d="M1182.7,595c-0.3,8-5.6,15.1-15.3,15c-8.4-0.1-14.8-6.7-14.8-15.1c0-8.6,6.7-15.3,15.3-15
			C1177.7,580.2,1182.5,587.4,1182.7,595z"/>
		<path class="st0" d="M723.2,633.8c0.8,5.3,0,10.6,0.5,15.8c0.4,0.2,0.6,0.3,0.9,0.5c1.2-0.6,1.8-1.8,2.6-2.7
			c2.9-3.3,6-6.2,9.6-8.7c7.4-5.2,15.7-7.9,24.7-8.2c4.3-0.1,8.6-0.1,12.9,0.9c6.3,1.4,11.7,4.3,16.3,8.7c3,2.9,5.5,6.2,7.6,9.9
			c0.7,1.3,1.3,2.5,2.1,3.8c0.2,0.3,0.7,0.5,1.3,0.8c0.9-1.2,1.8-2.3,2.7-3.4c3.8-4.8,8.1-9,13.2-12.5c7-4.8,14.9-7.3,23.3-7.9
			c2.9-0.2,5.8-0.2,8.6-0.1c12.9,0.4,23,6.1,30.4,16.6c3.9,5.5,6.5,11.8,8.2,18.3s2.9,13.1,3.1,19.9c0.1,3.5,0.3,7,0.3,10.6
			c0,19.7,0,39.4,0,59c0,1.7,0.2,3.5-0.4,5.1c-0.4,0.3-0.6,0.6-0.9,0.6c-6.2,0.1-12.5,0.1-18.7,0.2c-0.9,0-1.9,0.1-3-0.7
			c-0.1-0.3-0.4-0.9-0.4-1.5c-0.1-1.6-0.1-3.2-0.1-4.8c0-19.5,0-39,0-58.6c0-6.7-0.5-13.4-1.6-20.1c-0.6-3.6-1.7-7.2-3.2-10.5
			c-1-2.2-2.2-4.3-3.7-6.2c-4.1-5.2-9.4-8.1-16-8.7c-7.9-0.8-15.3,1-21.9,5.4c-6.1,4-11.3,8.9-15.8,14.7c0.2,1.4,0.4,2.9,0.7,4.2
			c1.3,7.3,1.6,14.6,1.6,22c0.1,20,0,40,0,60c0,1.3-0.1,2.5-0.2,3.5c-0.6,1-1.4,1.2-2.2,1.2c-3.7,0-7.4,0-11,0c-2.4,0-4.8,0-7.2,0
			c-0.8,0-1.6,0.1-2.4-0.5c-0.5-0.3-0.5-1-0.5-1.6c0-1.6-0.1-3.2-0.1-4.8c0-19.7,0-39.4,0-59c0-6.7-0.5-13.4-1.7-20
			c-0.6-3.3-1.5-6.5-2.9-9.6c-1-2.4-2.3-4.6-3.8-6.6c-4.2-5.3-9.7-8.2-16.4-8.8c-9-0.7-17.1,1.5-24.3,7.1c-3.8,2.9-7.4,6-10.3,9.7
			c-0.7,2-0.4,3.7-0.4,5.5c0,17.3,0,34.6,0,51.8c0,10.2,0,20.5,0,30.7c0,1.4,0,2.9-0.1,4.3c0,0.6-0.4,1.1-0.7,1.8
			c-1.2,0.1-2.3,0.2-3.5,0.2c-6.1,0-12.2-0.1-18.2-0.2c-0.1,0-0.3-0.1-0.4-0.2c-0.1-0.1-0.3-0.2-0.4-0.3c-0.1-0.4-0.3-0.9-0.3-1.3
			c0-41.1,0-82.2,0-123.3c0-0.5,0.2-0.9,0.3-1.4c0.4-0.2,0.8-0.6,1.2-0.6c6.4,0,12.8,0,19.2,0C722.2,633.3,722.5,633.5,723.2,633.8z
			"/>
		<path class="st0" d="M532.9,760.4c-3.4,0.3-18.6,0.5-22,0.2c-0.5,0-0.9-0.3-1.4-0.4c-0.1-0.5-0.3-1-0.2-1.4
			c0.4-1.2,0.8-2.4,1.3-3.6c22.1-55.5,44.2-111.1,66.3-166.6c0.6-1.6,1.1-3.3,2.2-4.7c0.3-0.1,0.6-0.4,0.9-0.4
			c7,0,14.1-0.1,21.1-0.1c0.5,0,0.9,0.2,1.3,0.3c1.2,1.2,1.6,2.8,2.1,4.3c9.9,24.9,19.9,49.9,29.8,74.8
			c12.2,30.7,24.5,61.5,36.7,92.2c0.6,1.5,1.4,2.9,1.4,4.4c-0.3,0.8-0.9,1-1.5,1.1c-2.2,0-4.5,0.1-6.7,0.1c-4,0-8,0-12,0
			c-1.1,0-2.2-0.2-3.1-0.2c-1.4-1.5-1.8-3.3-2.4-4.9c-4.2-11-8.4-22.1-12.6-33.2c-0.6-1.5-0.9-3.1-2.2-4.4c-0.5-0.1-1.1-0.2-1.7-0.3
			c-1.3-0.1-2.6,0-3.8,0c-23.8,0-47.6,0-71.5,0c-1.7,0-3.5-0.2-5,0.2c-1.5,1-1.7,2.6-2.2,3.9c-3.9,10.3-7.7,20.7-11.6,31
			c-0.7,1.8-1.3,3.6-2,5.4C533.7,758.9,533.3,759.6,532.9,760.4z M624.5,697.1c-0.3-1-0.6-2-1-3.1c-10.3-27.9-20.6-55.8-30.8-83.7
			c-0.4-1-0.9-2-1.4-3c-0.1-0.2-0.5-0.2-0.9-0.3c-1.1,1.1-1.3,2.5-1.8,3.8c-9.8,26.4-19.5,52.8-29.2,79.2c-0.8,2.1-1.5,4.2-2.3,6.3
			c-0.1,0.4,0.1,0.9,0.1,1.3c0.4,0.2,0.6,0.5,0.9,0.5c20.3,0.1,40.6,0.2,60.9,0.2c1.6,0,3.2,0.3,4.7-0.4
			C624.1,697.7,624.2,697.5,624.5,697.1z"/>
		<path class="st0" d="M24.8,603.6c-0.3,0.7-0.5,0.9-0.5,1.2c-0.1,17.6-0.1,35.2-0.1,52.8c0,0.6,0.2,1.2,0.3,2
			c0.6,0.2,1.2,0.5,1.8,0.6c1.6,0.1,3.2,0.1,4.8,0.1c19.2,0,38.4,0,57.6,0c1.6,0,3.2,0,4.8,0.1c0.4,0,0.9,0.2,1.2,0.4
			c0.2,0.4,0.5,0.6,0.5,0.9c0.3,5.1,0.2,13.9-0.2,17.2c-0.4,0.6-1,0.8-1.6,0.9c-1.6,0.1-3.2,0.1-4.8,0.1c-19,0-38.1,0-57.1,0
			c-1.4,0-2.9,0-4.3,0.1c-0.8,0-1.5,0.3-2.4,0.4c-0.2,0.7-0.4,1.3-0.5,1.9c-0.1,1.3-0.1,2.6-0.1,3.8c0,16.3,0,32.6,0,48.9
			c0,1.7-0.2,3.5,0.4,5.4c0.5,0.2,1,0.5,1.6,0.6c1.6,0.1,3.2,0.1,4.8,0.1c20.8,0,41.6,0,62.4,0c1.7,0,3.5-0.2,5.2,0.3
			c0.2,0.5,0.6,1,0.6,1.4c0,5.4,0,10.9,0,16.3c0,0.3-0.1,0.6-0.3,1.2c-0.4,0.2-1,0.5-1.6,0.5c-1.1,0.1-2.2,0.1-3.4,0.1
			c-29.4,0-58.9,0-88.3,0c-1.3,0-2.6,0-3.8-0.1c-0.4,0-0.9-0.3-1.4-0.5c-0.1-0.6-0.4-1.2-0.4-1.9c0-1.7,0-3.1,0-4.5
			c0-54.5,0-109.1,0-163.6c0-1.4,0-2.9,0.1-4.3c0-0.6,0.2-1.2,0.4-2c0.6-0.2,1.2-0.4,1.8-0.5c1.3-0.1,2.6-0.1,3.8-0.1
			c28.8,0,57.6,0,86.4,0c1.7,0,3.5-0.1,5.2,0.3c0.2,0.5,0.6,1,0.6,1.4c0,5.4,0,10.9,0,16.3c0,0.3-0.2,0.6-0.3,1.1
			c-0.4,0.2-1,0.5-1.6,0.5c-1.6,0.1-3.2,0.1-4.8,0.1c-20.3,0-40.6,0-60.9,0C28.7,603.2,26.8,602.9,24.8,603.6z"/>
		<path class="st0" d="M428.2,763.2c-6.9,0.1-13.6-0.6-20-2.7c-12.1-3.9-21.9-11-29.4-21.3c-6.1-8.4-9.7-17.9-11.6-28.1
			c-1.3-7.3-1.5-14.7-0.8-22c1.3-14.5,6.1-27.8,15.8-38.9c9-10.2,20.1-16.6,33.6-18.8c9.1-1.5,18.2-1.5,27.2,0.6
			c16.3,3.8,28.7,13,37.2,27.3c4.7,7.9,7.5,16.6,8.8,25.7c0.8,5.2,1,10.5,0.8,15.8c-0.5,11.2-3.1,21.8-8.5,31.7
			c-7.6,13.8-18.8,23.2-33.8,28.1C441.2,762.5,434.7,763.2,428.2,763.2z M389.7,696.7c0,5,0.2,9.9,1.3,14.8
			c1.4,6.6,3.7,12.9,7.5,18.5c5.1,7.4,12,12.2,20.9,14.1c3.6,0.8,7.3,0.9,11,0.7c11.5-0.6,20.5-5.5,27-15.1
			c3.2-4.7,5.2-9.9,6.7-15.3c1.8-6.7,2.2-13.5,2-20.5c-0.2-6.3-1.2-12.4-3.1-18.4c-1.5-4.9-3.8-9.5-6.9-13.6
			c-5.2-6.7-11.9-11-20.3-12.6c-3.8-0.8-7.6-1-11.5-0.6c-11.4,1-20.3,6.2-26.6,15.9c-2.2,3.4-3.8,7-5,10.8
			C390.6,682.4,389.6,689.5,389.7,696.7z"/>
		<path class="st0" d="M1026.1,702.9c-2.1,0.6-3.9,0.4-5.6,0.4c-22.7,0-45.4,0-68.1,0c-1.6,0-3.2,0-4.8,0.1c-0.4,0-0.9,0.2-1.4,0.4
			c-0.2,0.5-0.5,0.9-0.5,1.3c-0.1,7.1,1.4,14,4.5,20.4c3.9,8,10.2,13.4,18.5,16.4c5.2,1.8,10.5,2.6,16,2.8
			c11.5,0.4,22.6-1.6,33.4-5.3c1.6-0.6,3.3-1.1,4.8-1.6c0.3,0.2,0.5,0.2,0.6,0.4c0.3,0.6,0.7,1.1,0.7,1.7c0.6,4.9,2.2,9.6,2.2,14.3
			c-0.7,1.2-1.6,1.5-2.5,1.9c-5.3,2.2-10.9,3.7-16.5,4.9c-10.6,2.2-21.2,2.7-32,1.9c-11.1-0.8-21.2-4.4-30.3-10.9
			c-7.7-5.5-13.3-12.8-17.3-21.4c-3.3-7-5.2-14.4-6.1-22.1c-0.5-4.3-0.9-8.6-0.7-12.9c0.3-9,1.7-17.8,4.7-26.3
			c3.2-9,8-17.1,14.9-23.7c7.7-7.4,16.8-12.2,27.3-14.1c9.2-1.6,18.5-1.6,27.5,1c14.6,4.3,24.7,13.7,29.7,28.2
			c1.8,5,2.8,10.2,3.1,15.5c0.4,7.2,0.2,14.4-1.1,21.5C1027.2,699.3,1026.7,701,1026.1,702.9z M1005.7,684.7
			c0.2-0.9,0.6-1.8,0.6-2.7c0.3-4,0-8-0.7-11.9c-0.5-3.2-1.5-6.2-2.9-9.1c-2.9-5.7-7.3-9.6-13.4-11.6c-2.1-0.7-4.3-1.2-6.5-1.5
			c-8.6-0.9-16.5,1-23.3,6.5c-4,3.3-7.1,7.3-9.3,12c-2.1,4.3-3.4,8.9-4.2,13.7c-0.2,1.4-0.5,2.8,0,4.3c0.3,0.2,0.5,0.4,0.8,0.7
			c0.7,0,1.5,0.1,2.3,0.1c17.7,0,35.4,0,53.1,0c0.6,0,1.3,0,1.9-0.1C1004.6,685.1,1005.1,684.9,1005.7,684.7z"/>
		<path class="st0" d="M1411,760c-0.7-4.6,0.2-9.2-0.5-13.8c-0.4,0-0.7-0.1-1.2-0.1c-0.5,0.4-1.1,1-1.7,1.5
			c-12.4,11.5-27.1,16.4-44,15.3c-4.4-0.3-8.5-1.4-12.5-3.2c-10.8-4.9-16.9-13.4-19-24.8c-1-5.8-0.9-11.8,0.7-17.6
			c1.8-6.6,5.4-11.9,10.9-15.9c5.9-4.3,12.6-6.9,19.7-8.5c5.2-1.1,10.4-1.8,15.7-2c9.3-0.4,18.5-1,27.8-0.9c0.8,0,1.6-0.1,2.5-0.2
			c0.2-0.6,0.6-1.2,0.6-1.8c0.1-5.8,0-11.5-1.4-17.2c-0.9-3.6-2.2-7-4.2-10.2c-2.6-4.2-6.2-7.3-10.9-9c-3.5-1.3-7.1-2-10.8-2.2
			c-11.1-0.5-21.6,1.8-31.6,6.4c-1.4,0.7-2.9,1.3-4.3,2c-0.3-0.3-0.7-0.5-0.8-0.7c-2-5.1-3.4-10.3-5-15.2c0.3-1.1,0.9-1.6,1.6-2
			c7.9-4.5,16.3-7.2,25.3-8.6c6.7-1,13.4-1.1,20.1-1c5.3,0.1,10.5,1.1,15.5,3c11.7,4.3,20.2,12.1,25.2,23.5
			c2.7,6.2,4.1,12.8,4.6,19.5c0.2,2.4,0.2,4.8,0.2,7.2c0,23.8,0,47.7,0,71.5c0,1.6,0.2,3.2-0.4,4.8c-0.4,0.2-0.8,0.5-1.2,0.5
			c-6.6,0-13.1,0.1-19.7,0C1412,760.6,1411.6,760.3,1411,760z M1409.6,705.9c-1.2-0.6-2.2-0.4-3.1-0.3c-2.4,0.2-4.8,0.4-7.2,0.6
			c-4.9,0.4-9.9,0.8-14.8,1.2c-2.2,0.2-4.4,0.5-6.7,0.8c-3.2,0.5-6.3,1.1-9.3,2.1c-2.4,0.8-4.8,1.8-6.9,3.3c-4.2,2.9-6.7,6.9-6.9,12
			c-0.1,2.2-0.1,4.5,0.2,6.7c0.7,4.9,3.2,8.6,7.7,10.9c1.3,0.7,2.6,1.2,4,1.6c5,1.5,10.2,1.4,15.2,0.5c11.1-1.9,20.3-7.4,27.9-15.7
			c0.1-0.1,0.2-0.3,0.3-0.6c0.5-1.6,0.3-3.3,0.3-5.1c0-5.8-0.1-11.5-0.2-17.3C1410,706.6,1409.8,706.3,1409.6,705.9z"/>
		<path class="st0" d="M215.7,726.9c0-2.2,0.1-4.1,0.1-6c0-27,0-54.1,0-81.1c0-1.4,0-2.9,0.1-4.3c0-0.6,0.3-1.2,0.4-1.7
			c0.4-0.2,0.7-0.5,1-0.5c6.4-0.1,12.8-0.1,19.2-0.1c0.8,0,1.5,0.2,2.5,0.3c0.2,0.7,0.5,1.3,0.5,1.9c0.1,1.3,0.1,2.6,0.1,3.8
			c0,38.5,0,77.1,0,115.6c0,1.7,0.3,3.5-0.3,5.2c-0.3,0.2-0.5,0.5-0.8,0.5c-2.3,0.3-16.7,0.2-20.1-0.1c-0.8-0.4-1.1-1.2-1.1-2
			c0-3.7,0-7.4-0.1-11c0-1.3-0.1-2.5-0.2-4c-0.6,0.2-1.2,0.1-1.4,0.4c-0.9,0.9-1.7,1.9-2.6,2.8c-3.9,4.3-8.4,7.8-13.5,10.7
			c-5.8,3.3-12,5.3-18.7,5.6c-2.9,0.1-5.8,0.2-8.6,0c-10.7-0.5-19.3-5.1-26.2-13.2c-3.7-4.3-6.3-9.2-8.4-14.5
			c-2.3-5.8-3.5-11.9-4.5-18.1c-0.9-6-1.1-12.1-1.1-18.2c0-20,0-40,0-60c0-1.7-0.2-3.5,0.3-5.2c0.5-0.3,0.9-0.6,1.3-0.6
			c6.7,0,13.4-0.1,20.1,0c0.4,0,0.9,0.3,1.5,0.5c0.1,0.6,0.4,1.2,0.4,1.8c0.1,1.4,0.1,2.9,0.1,4.3c0,19,0,38.1,0,57.1
			c0,3.5,0.1,7,0.2,10.6c0.1,4.8,0.9,9.6,2,14.2c0.8,3.4,1.9,6.8,3.7,9.8c4.5,7.8,11.1,12.2,20.2,12.5c1.8,0.1,3.5,0,5.3,0
			c4.7-0.2,9.2-1.5,13.2-3.9C206,736.7,211.1,732.3,215.7,726.9z"/>
		<path class="st0" d="M1308.8,756.2c-2.4,1.5-4.7,2.2-7,2.9c-10.8,3.2-21.9,4.4-33.2,4c-5.6-0.2-11.1-1-16.5-2.7
			c-17.6-5.5-29.9-16.8-36.9-33.8c-2.9-7-4.5-14.3-5.3-21.8c-0.6-6.3-0.5-12.5,0.3-18.7c1.3-10.6,4.4-20.6,10.3-29.6
			c8.9-13.6,21.5-21.6,37.2-25c3.9-0.8,7.9-1.1,11.9-1.3c10.1-0.4,20.1,0.4,29.9,3.2c3.1,0.9,6.1,1.8,9,3.5c0.1,0.6,0.3,1.3,0.2,1.9
			c-0.9,4.9-1.8,9.7-2.8,14.6c-0.1,0.4-0.4,0.8-0.7,1.4c-1-0.3-1.9-0.4-2.8-0.8c-5.3-2-10.7-3.3-16.3-4c-7.8-1-15.6-1.2-23.4,0.5
			c-9.5,2.1-16.9,7.3-22.1,15.6c-3.5,5.7-5.7,11.8-6.7,18.3c-0.8,4.7-1.3,9.5-1,14.3c0.3,6.7,1.2,13.4,3.6,19.7
			c1.2,3.3,2.8,6.4,4.7,9.4c5.1,8,12.4,12.7,21.5,14.8c3.1,0.7,6.3,1.1,9.5,1.2c10.2,0.4,20.1-1.1,29.7-4.5c1-0.4,2.1-0.6,3-0.9
			c1.1,1,1.1,2.2,1.2,3.2C1307.1,746.5,1308.4,751.1,1308.8,756.2z"/>
		<path class="st0" d="M1131.1,651.4c-1.2,1.1-2,0.9-2.8,1c-2.2,0.1-4.5,0-6.7,0.1c-4.7,0.1-9.2,1-13.7,2.4
			c-7.2,2.2-13.3,6.1-18.3,11.8c-2.3,2.6-4.5,5.4-6.3,8.8c0,1.7-0.1,3.6-0.1,5.5c0,24.6,0,49.3,0,73.9c0,1.7,0.2,3.5-0.3,5.1
			c-0.4,0.3-0.6,0.5-0.9,0.6c-2.5,0.3-18.5,0.2-21.7-0.2c-0.2-0.5-0.6-1-0.6-1.6c-0.1-1.3-0.1-2.6-0.1-3.8c0-38.7,0-77.4,0-116.1
			c0-1.6-0.2-3.2,0.2-4.5c0.6-1,1.4-1.2,2.2-1.2c3.7,0,7.4,0,11,0c2.1,0,4.2,0,6.2,0c0.8,0,1.5,0.2,2.1,0.3c1,1,0.8,2,0.9,2.9
			c0,5.4,0,10.9,0,16.3c0,0.9-0.1,1.9,0.4,2.7c0.4-0.2,0.8-0.2,0.9-0.4c0.8-1.4,1.6-2.7,2.4-4.1c1.9-3.2,4.1-6.1,6.7-8.8
			c4.6-4.7,10.1-7.8,16.5-9.3c5.7-1.4,11.4-1.5,17.2-1.1c1.6,0.1,3.1,0.4,4.6,1.3c0.1,0.5,0.4,0.9,0.4,1.4
			C1131.2,640.1,1131.3,645.8,1131.1,651.4z"/>
		<path class="st0" d="M303.3,759.9c-0.4,0.3-0.7,0.6-0.9,0.6c-6.7,0.1-13.4,0.1-20.1,0.2c-0.6,0-1.2-0.2-1.9-0.4
			c-0.1-0.7-0.3-1.3-0.4-1.9c-0.1-1.4,0-2.9,0-4.3c0-38.1,0-76.1,0-114.2c0-1.9-0.2-3.8,0.2-5.5c0.5-0.8,1-1.1,1.7-1.1
			c1-0.1,1.9-0.1,2.9-0.1c4.6,0,9.3,0,13.9,0c1.1,0,2.2,0.2,3.4,0.3c0.2,0.9,0.5,1.6,0.5,2.4c0,5.6,0,11.2,0.1,16.8
			c0,0.9-0.2,1.9,0.5,2.7c0.3-0.1,0.7-0.2,0.8-0.4c0.7-1.2,1.4-2.5,2.1-3.7c2.1-3.5,4.4-6.6,7.3-9.5c4.7-4.7,10.2-7.6,16.6-9
			c5.3-1.2,10.8-1.4,16.2-1c1.8,0.1,3.5,0.5,4.9,1.2c0.2,0.5,0.4,0.8,0.4,1.1c0.1,5,0.1,9.9,0.1,14.9c0,0.9-0.1,1.9-0.2,2.6
			c-0.6,0.8-1.2,1-1.8,1c-2.2,0-4.5,0.1-6.7,0.1c-4.8,0.1-9.6,0.9-14.2,2.2c-7.5,2.2-14,6.3-19.1,12.3c-1.3,1.5-2.4,3-3.6,4.5
			c-0.8,1.2-1.5,2.4-2.3,3.7c0,1.9-0.1,3.8-0.1,5.7c0,24.6,0,49.3,0,73.9C303.5,756.5,303.7,758.3,303.3,759.9z"/>
		<path class="st0" d="M1179.1,759.9c-0.4,0.3-0.5,0.4-0.7,0.5c-0.1,0.1-0.3,0.2-0.4,0.2c-5.8,0.1-11.5,0.1-17.3,0.2
			c-1.3,0-2.5-0.1-3.5-0.1c-0.9-0.5-1.2-1.1-1.2-1.7c-0.1-1.3-0.1-2.6-0.1-3.8c0-38.7,0-77.4,0-116.1c0-1.7-0.2-3.5,0.4-5
			c0.5-0.3,0.7-0.6,1-0.6c6.7-0.5,13.4-0.2,20.1-0.1c0.4,0,0.9,0.3,1.5,0.5c0.1,0.6,0.3,1.2,0.4,1.8c0.1,1.4,0.1,2.9,0.1,4.3
			c0,38.2,0,76.4,0,114.6C1179.4,756.3,1179.6,758.2,1179.1,759.9z"/>
	</g>
	<path class="st0" d="M1124.4,217.7c0.4,10.7-0.3,21.4-1.9,32.1c-0.7,4.9-1.6,9.8-3.1,14.6c-2.4,2.8-3.8,6.2-4.8,9.8
		c-0.6,2.3-1.4,4.6-2.2,6.9c-0.3,0.9-0.8,1.7-1.2,2.6c-2.6,0.6-5,1.7-7.8,1.4c-4.9-4.1-8.6-9.3-13.5-13.5c-0.7-0.1-1.3-0.2-2-0.2
		c-4.5,0.1-8.5,1.6-12,4.2c-4.3,3.3-8.6,6.6-12.9,10c-0.8,0.6-1.4,1.3-2.1,2c-2.8,2.9-6.2,4.4-10.1,4.9c-4.9,0.7-9.8,1.5-14.2,2.1
		c-0.9,0.5-1.4,0.7-1.8,0.9c-4.6,3-9.5,3.4-14.7,1.4c-2.7-1-5.4-1.9-8.2-2.8c-7.7-2.6-7.7-2.6-15.5-2.5c-0.2,0-0.3,0-0.5,0
		c-0.8,0-1.6,0-2.5,0.9c-1.4,3.3-2.4,6.9-1.6,10.8c0.3,1.6,0.5,3.2,0.7,4.7c0.1,0.9,0.2,1.9,0.1,2.9c-0.4,2.5-1.9,4-4.3,4.7
		c-2.8,0.8-5.6,1.3-8.5,1.4c-0.8-0.5-1.7-1-2.6-1.5c-5.7,2.1-11.2,4.8-16.9,6.8c-1.1,0-2.2-0.1-3.3,0c-0.8,0.1-1.5,0.3-2.2,0.5
		c-0.6,1.4-1,2.6-1.6,3.7c-1.2,2.4-2.5,4.8-3.7,7.3c-0.8,1.6-2.1,2.8-3.7,3.7c-2.5,1.4-5,2.8-7.5,4.2c-0.8,0.5-1.7,0.8-2.4,1.2
		c-1.5-0.2-2.8-0.4-4-0.4c-0.4,0-0.9,0.2-1.4,0.3c-0.5,1.3-0.4,2.6-0.4,3.8c0,5.9-0.1,11.8-0.1,17.8c0,1.7,0.2,3.5-0.6,5.5
		c-2.7,2.7-5.7,5.6-8.8,8c-3.5,0.4-6.7-0.3-9.9,0.3c-0.7,0.9-1.5,1.7-2.2,2.5c-4.5,5.4-8.9,10.9-13.4,16.3c-1.1,1.3-2,2.9-3.8,3.8
		c-4.3,0.3-8.8,0.8-13.2,1c-2.9,0.2-5.8,0.1-8.6,0.1c-1.3,0-2.6-0.2-3.8-0.4c-5.7-1-11.3-1.9-17-3c-2.2-0.4-4.4-0.6-6.7-0.5
		c-7.5,0.4-15,0.8-22.5,1.3c-0.6,0-1.2,0.3-1.8,0.4c-0.9,0.8-1.7,1.6-2.6,2.3l-15.8,1.1c-2.4-0.5-4.1-1.8-4.8-4.2
		c-0.6-1.8-1.1-3.7-1.7-5.5c-1-3.1-1.8-6.1-2.9-9.1c-1.1-3.2-2.4-6.3-3.7-9.4c-0.4-0.9-0.8-1.7-1.2-2.6c-0.7-0.2-1.4-0.4-2-0.4
		c-3.3-0.3-6.7-0.5-10-0.8c-2.7-0.2-5.4-0.4-8.1-0.6c-1.4-0.1-2.9-0.2-4.3-0.6c-4.4-1.3-9-2.2-13.3-3.8c-0.2-0.6-0.5-1-0.5-1.4
		c-0.2-4.5-0.1-8.9,0.1-13.4c1-1.3,1.9-2.6,2.8-3.9c1.2-1.7,2.5-3.3,3.7-5c0.3-0.4,0.4-0.9,0.5-1.2c-0.4-1.3-0.7-2.5-1-3.6
		c0.2-2.5,1.4-4.1,3.3-5.3c1.1-0.7,2.2-1.2,3.3-1.9c2.5-1.5,4.9-3,7.4-4.5c1.3-0.9,2.7-1.7,3.6-3.5c0.5-3.2,0.4-6.8,0.6-10.3
		c0.3-3.5,0.4-7,1-10.5c4.4-5.2,8.7-10.3,13-15.4c1.1-4.6,2.1-9.1,3.2-13.6c1.1-4.6,1.9-9.4,3.4-13.7c2.9-1.6,9.4-4.5,11.6-5.2
		c0.8-0.2,1.5-0.4,2.3-0.5c4.3-0.6,8.2,0.1,12,2.3c7.7,4.7,16.1,7,25.2,6.3c4-0.3,8-0.3,12-0.6c3.4-0.2,6.7,0,10,0.7
		c5.9,1.4,11.9,2.6,17.8,3.9c1.6,0.3,3.1,0.8,4.6,1.1c2.3,1.4,4.4,2.7,6.6,4c2.2,1.3,4.2,2.9,6.9,3.6c5.3-0.5,10.6-1.4,16-2.5
		c0.6-0.9,1.2-1.7,1.6-2.5c1.4-3,3.2-5.9,4.4-9.2c-0.9-1.1-1.8-2.2-2.6-3.2c-0.3-1.7,0.1-3,1.1-4.3c0.9-0.4,2-0.8,2.9-1.4
		c0.8-0.5,1.5-1.2,2.3-1.8c0-7.6,1.1-15.1,0.9-22.5c-2.3-5-4.6-9.9-6.8-14.9c-0.9-2.1-2.2-3.9-3.7-5.6c-3.1-3.5-6.1-7-9.2-10.5
		c-1.2-1.3-2.4-2.5-3.2-4.3c0.1-2.6-0.1-5.3,1.1-7.9c1-0.3,1.9-0.6,2.8-0.7c3.3-0.5,6.7-0.9,10-1.3c5.9-0.8,11.7-1.4,17.6-2.3
		c3-0.5,6-0.7,9.1-0.7c4.5,0,9,0,13.4,0c1.3,0,2.6,0.2,3.7-0.4c1-0.8,1.1-1.9,1.6-2.9c1-2.2,1.9-4.4,2.9-6.6c0.9-1.7,2-3.3,3.9-4.3
		c8-1.8,15.9-4.3,23.8-6.8c2-2.1,3.9-4,5.8-5.9c2-2,3.7-4.4,5.8-5.9c2.2-0.9,4.2,0,6.2-1.1c4.1-6.7,8.1-13.9,12.4-20.4
		c4.9-3,10.1-4.8,14.8-7.8c-0.1-1.5-0.2-2.9-0.2-4.3c0-0.8,0.2-1.6,1.2-2.3c3.3-0.3,7-0.6,10.6-0.8c7-0.4,14.1-0.7,21.1-1.1
		c0.8,0,1.5-0.3,2.3-0.5c0.5-1.1,0.9-2.2,1.3-3.2c0.5-1.2,0.6-2.5,1.9-3.5c1.8-0.5,5.4,0.6,5.4,0.6l1.1-0.2
		C1042.1,40.2,971.5,0,891.5,0C805.9,0,731,46.1,690.3,114.9C649.6,46.1,574.7,0,489,0C360,0,255.3,104.6,255.3,233.7
		S360,467.4,489,467.4c85.7,0,160.6-46.1,201.3-114.9c40.7,68.7,115.6,114.9,201.3,114.9c129.1,0,233.7-104.6,233.7-233.7
		c0-9.4-0.6-18.7-1.7-27.9C1124,209.8,1124.2,213.7,1124.4,217.7z M873.1,28.6c2-1.3,4-2.6,6-3.9c1.2-2.5,2.4-4.9,3.7-7.4
		c0.9-0.1,1.7-0.2,2.4-0.1c4.1,0.6,8.2,1.3,12.3,2c0.3,0.1,0.6,0.3,1.1,0.5c0.6,1.2,1.3,2.6,1.9,4c1.2,0.9,2.5,0.6,3.8,0.6
		c3.7,0,7.4-0.1,11-0.1c1.1,0,2.2,0.2,3.4,0.4c0.7,2.8-0.6,5.1-1.1,7.6c-1.7,1.2-3.4,2.4-5.1,3.6c0.6,2.3,2.1,4.1,3.2,6
		c1.1,2,2.2,3.9,3.3,5.8c1.1,2,2.1,4,3.2,6.1c3,2.2,6.1,4.5,9.2,6.7c2.7,1.8,5,4,6.9,6.6c1.1,1.5,2.4,3,3.5,4.5
		c2.5,8.8,4.7,17.6,6.1,26.2c0.9,1.2,1.8,1.5,2.7,1.8c1.1,0.4,2.1,0.7,3.1,1.1c0.8,0.7,1.5,1.3,2.2,2c3.4,3.8,7.4,7,11.6,10
		c1.7,1.2,3.5,2.3,4.8,4.1c0.1,0.8,0.3,1.8,0.3,2.7c0,4-0.1,8-0.1,12c0,0.5-0.3,0.9-0.4,1.5c-3.1,2.2-6.4,4.1-9.8,5.9
		c-4.9-0.6-9.8-1.2-14.6-2.3c-4.6-1.1-9.2-2.7-14.2-4.2c-3.1,1-6.2,1.8-9.2,2.9c-2.9,1-5.9,1.4-9,1.2c-4-0.3-8-0.5-12-0.7
		c-1.8-0.7-3.6-1.3-4.8-2.4c-0.7-1-0.7-1.8-0.7-2.6s0-1.6,0.1-2.4c0.3-6.7,0.6-13.4,0.1-20.1c-0.3-4.5,0-8.9,0.7-13.4
		c0.9-5.8,1.5-11.7,1.2-17.7c-0.1-1.3-0.1-2.6-0.3-3.8c-0.1-0.6-0.5-1.1-0.7-1.7c-2.3-0.9-5-0.2-7.1-1.9c-0.9-2.7-0.5-5.6-0.7-8.4
		c-0.2-2.9-0.4-5.7-0.7-8.7c-1.7-1.6-3.3-3.1-4.9-4.6c-0.2-1.5-0.4-2.9-0.5-4c-0.8-1.2-1.8-1.3-2.7-1.4c-1.9-0.2-3.8-0.4-5.4-0.6
		c-1.4-1.2-1.8-2.6-2.3-3.9c-0.5-1.2-1-2.3-1.5-3.5c-0.5-1.3-1-2.7-1.5-3.8C871.7,29.5,872.4,29.1,873.1,28.6z M829.1,99.9
		c2.2-0.8,4.5-1.6,6.8-2.4c1.2-0.4,2.4-0.9,3.6-1.4c1.1-2.9,1.3-5.9,1.6-8.9c-1.7-3-4.3-5.3-6-8.2c-0.6-2.4-0.8-5-1-7.6
		c3.1-1.5,6.4,0.1,9.7-1c0.8-1.5,1.7-3.2,2.5-4.8c2.2-1.3,4.6-1.4,6.9-2.2c3.7-1.2,7.5-1.6,11.3-1.4c4.3,0.3,8.6,0,13.1,0.6
		c0.6,0.6,1.3,1.3,1.8,2.1c0.9,1.3,1.7,2.7,2.6,4.2c-0.2,1.2-0.3,2.5-0.6,3.7c-0.8,3.3-1.7,6.5-2.4,9.8c-0.5,2.2-1.2,4.3-2.1,6.3
		c-0.1,0.3-0.2,0.6-0.4,0.9c-2.2,4.8-4.1,9.7-4.9,15c-0.2,1.2-0.7,2.5-1,3.8c-0.6,0.3-1.1,0.7-1.7,0.7c-11.1,1.4-22.3,1.7-33.5,1.3
		c-0.3,0-0.6-0.2-1.2-0.4c-2.3-2.5-4.4-5.6-6.3-8.3C828,100.5,828.5,100.1,829.1,99.9z M627.5,168.7c-4.2,5.6-8.4,11.3-12.7,16.8
		c-4,5.2-8.2,10.2-12.3,15.4c-0.9,1.1-1.7,2.3-2.6,3.3c0.2,4,0.5,7.8,0.7,11.7c0.2,3.7,1,7.3,0.6,11.1c-0.5,0.5-1.1,1.1-1.7,1.5
		c-5.6,3.7-11.2,7.5-16.8,11.1c-1.1,0.7-2.2,1.3-3.4,1.8c-8,3.3-16,6.5-23.7,9.7c-1.9,0.2-3.5,0.4-5.1,0.5c-0.3,0.8-0.7,1.6-0.8,2.3
		c-0.8,6.2-1.5,12.4-2.2,18.6c-0.2,1.9-0.5,3.8-0.8,5.8c-0.9,0.6-1.8,1.3-2.8,1.8c-2.5,1.4-5,2.8-7.3,4c-1.1,1.6-0.8,3.1-1.1,4.5
		c-0.4,1.9-1.1,3.7-2.5,5.1c-2.8,2.7-4.8,6-6.6,9.4c-0.4,0.8-1,1.6-1.5,2.6c-1.3,0.1-2.6,0.2-3.8,0.2c-5,0-9.9,0-14.9,0
		c-1.3,0-2.5,0.1-3.5,0.2c-1.1,0.6-1.3,1.4-1.5,2.2c-1.5,5.9-3.1,11.8-4.6,17.6c-0.2,0.9-0.6,1.8-0.9,2.9c-0.8,0.4-1.7,0.9-2.6,1.2
		c-4.8,1.7-9.7,3.3-14.6,4.9c-3.1,2.9-6.8,4.8-10.2,6.5c-1.1,1.3-1.2,2.6-1.3,3.9c-0.6,4.9-1.3,9.8-1.8,14.8
		c-0.4,4.1-0.4,8.3-0.5,12.5c0,0.3,0.2,0.6,0.3,0.9c0.4,0.8,1.3,0.9,1.9,1.2c0.6,0.3,1.2,0.5,1.7,0.8c0.7,0.4,1.4,0.8,2,1.4
		c0.5,0.4,0.8,1,1.2,1.6c-1.7,2.4-4.5,3.2-6.7,4.7s-4.7,2.7-6.8,4.2c0.3,3.2,1.3,6.5,3.2,10.2c3.2,2.1,7.3,2.2,10.4,4.7
		c0.1,0.1,0.1,0.3,0.2,0.6c-0.6,0.8-1.2,1.7-1.9,2.6c-1.4,1.7-2.7,3.6-4.6,5.2c-7.8,1.6-15.8,3.1-23.5,4.4c-1.2-0.3-1.6-1-2-1.7
		c-1.2-2.3-2.3-4.6-3.5-6.8c-0.7-1.3-1.3-2.5-1.9-3.6c-1.9-1.7-4.3-1.8-6.1-3.1c-0.6-0.7-0.6-1.5-0.5-2.3c0.5-3.3,1-6.6,1.5-10
		c1-6.3,2.1-12.6,3.1-18.9c0.2-1.3,0.3-2.5,0.2-3.8c-0.2-4.5-0.5-8.9-0.8-14c-3-6.2-6.2-13-9.3-19.6c0.1-3.6,0.9-8.1,2.2-11.6
		c0.4-0.4,0.9-1,1.5-1.6c0.6-0.5,1.2-1,1.6-1.3c1.2-1.6,1.5-3.2,1.5-4.8c0.3-7.5,0.6-15,0.7-22.5c0.1-7.7,0.6-15.3,1.3-23
		c0.4-4.9,1.4-9.8,2.1-14.7c0.1-0.8,0.3-1.6,0.4-2.4c0.4-4.3,0.3-8.6-1.4-12.7c-1.7-4-2.9-8.1-4.3-12.3c-1.2-1-2.4-2-3.7-3
		c-17.6-13.5-35.3-27.1-53-40.6c-2.2-1.7-4.1-3.5-5.8-5.7C362,170,358,165,354.1,160c-0.7-0.9-1.3-1.8-2.1-2.9
		c-0.4-4-1-8.1-1.1-12.2c-0.2-4.4-1-8.6-2.3-12.7c-0.2-0.8-0.5-1.5-0.8-2.8c2.1-5.1,4-10.2,6.2-15.2c1.1-2.5,2.6-4.8,3.9-7.2
		c0.5-0.8,0.9-1.7,1.2-2.6c0.6-1.5,0.8-3.1,0-5.1c-2.3-2.1-5-4.4-7.3-7s-4.4-5.5-6.5-8.3c1-2.3,1.9-4.3,2.8-6.4
		c5-2.9,10-5.8,15.2-8.6c2.8,0,5.7,0,8.6,0c2.5-1.2,4.9-2.4,7.3-3.7c2.1-1.1,4.3-2,6.7-2.4c1.4-0.2,2.8-0.6,4.3-1
		c0.2-0.8,0.5-1.5,0.6-2.3c0.1-1.1,0.2-2.2,0.2-3.5c0.6-0.2,1.1-0.7,1.7-0.7c2.7-0.2,13.6,0,16.5,0.2c1,1,2.2,2.1,3.3,3.2
		c2.6,2.5,5.7,3.9,9.3,4.6c4.7,0.9,9.2,0.4,13.8-0.5c3.6-0.7,7.2-1.5,10.8-2.2c0.8-0.2,1.6-0.2,2.6-0.4c8.6,3.4,17.4,7,26.1,10.5
		c0.7,1,1.4,1.9,2,2.8c2,3.1,3.9,6.2,5.9,9.3c0.7,1.1,1.5,2.1,2.2,3.1c1.2,0.1,2.3,0.2,3.4,0.3c7,0.3,14.1,0.6,21.1,0.9
		c2.6,0.1,5.1,0.6,7.4,1.9c4.7,2.7,9.4,5.5,14,8.3c0.3,0.2,0.5,0.4,0.9,0.8c0.1,0.7,0.3,1.7,0.3,2.6c0.1,4,0.1,8,0.1,12
		c0,0.9,0,1.9,0.7,2.9c1.9,0.6,4,0.2,6.1,0.3c1.9,0.1,3.8,0.1,5.8,0.1c2.1,0,4.2,0,5.7,0.1c1.8,0.6,2.6,1.6,3.5,2.5
		c5.4,5.2,11.1,10.1,17.1,14.7c3.5,2.8,7.2,5.3,11.4,7.5c4.3,0.2,8.8-0.1,13.2-0.3c5.6-0.2,11.2-0.5,16.8-0.7c1.1,0,2.3,0,3.3,0.2
		c1.1,0.2,2.1,0.7,2.8,0.9c1.6,1,2.4,2.2,3.2,3.5c2.7,4.2,6.9,14.6,8.1,20C629.7,166,628.5,167.4,627.5,168.7z"/>
</g>
</svg>
